<?xml version="1.0" encoding="UTF-8" standalone="no"?>
<!-- Created with Inkscape (http://www.inkscape.org/) -->

<svg
   sodipodi:docname="LJ_potential.svg"
   id="svg1107"
   version="1.1"
   viewBox="0 0 210 297"
   height="297mm"
   width="210mm"
   inkscape:version="1.2.1 (9c6d41e4, 2022-07-14)"
   xmlns:inkscape="http://www.inkscape.org/namespaces/inkscape"
   xmlns:sodipodi="http://sodipodi.sourceforge.net/DTD/sodipodi-0.dtd"
   xmlns="http://www.w3.org/2000/svg"
   xmlns:svg="http://www.w3.org/2000/svg">
  <sodipodi:namedview
     id="namedview1109"
     pagecolor="#ffffff"
     bordercolor="#000000"
     borderopacity="0.25"
     inkscape:showpageshadow="2"
     inkscape:pageopacity="0.0"
     inkscape:pagecheckerboard="0"
     inkscape:deskcolor="#d1d1d1"
     inkscape:document-units="mm"
     showgrid="false"
     inkscape:zoom="0.50765021"
     inkscape:cx="296.46398"
     inkscape:cy="649.06897"
     inkscape:window-width="1512"
     inkscape:window-height="945"
     inkscape:window-x="0"
     inkscape:window-y="37"
     inkscape:window-maximized="0"
     inkscape:current-layer="g74052" />
  <defs
     id="defs1104">
    <inkscape:path-effect
       effect="bspline"
       id="path-effect69354"
       is_visible="true"
       lpeversion="1"
       weight="33.333333"
       steps="2"
       helper_size="0"
       apply_no_weight="true"
       apply_with_weight="true"
       only_selected="false" />
    <inkscape:path-effect
       effect="bspline"
       id="path-effect69106"
       is_visible="true"
       lpeversion="1"
       weight="33.333333"
       steps="2"
       helper_size="0"
       apply_no_weight="true"
       apply_with_weight="true"
       only_selected="false" />
    <inkscape:path-effect
       effect="bspline"
       id="path-effect67786"
       is_visible="true"
       lpeversion="1"
       weight="33.333333"
       steps="2"
       helper_size="0"
       apply_no_weight="true"
       apply_with_weight="true"
       only_selected="false" />
    <inkscape:path-effect
       effect="bspline"
       id="path-effect65511"
       is_visible="true"
       lpeversion="1"
       weight="33.333333"
       steps="2"
       helper_size="0"
       apply_no_weight="true"
       apply_with_weight="true"
       only_selected="false" />
    <inkscape:path-effect
       effect="bspline"
       id="path-effect59969"
       is_visible="true"
       lpeversion="1"
       weight="33.333333"
       steps="2"
       helper_size="0"
       apply_no_weight="true"
       apply_with_weight="true"
       only_selected="false" />
    <inkscape:perspective
       sodipodi:type="inkscape:persp3d"
       inkscape:vp_x="0 : 148.5 : 1"
       inkscape:vp_y="0 : 1000 : 0"
       inkscape:vp_z="210 : 148.5 : 1"
       inkscape:persp3d-origin="105 : 99 : 1"
       id="perspective56219" />
    <inkscape:path-effect
       effect="bspline"
       id="path-effect55329"
       is_visible="true"
       lpeversion="1"
       weight="33.333333"
       steps="2"
       helper_size="0"
       apply_no_weight="true"
       apply_with_weight="true"
       only_selected="false" />
    <clipPath
       id="clipPath3317">
      <rect
         style="fill:none;fill-opacity:1;stroke:#000000;stroke-width:0.499999;stroke-opacity:1"
         width="184.67917"
         height="93.662498"
         x="7.4083328"
         y="23.283333"
         id="rect38641" />
    </clipPath>
    <clipPath
       id="clipPath3722">
      <rect
         style="fill:none;fill-opacity:1;stroke:#000000;stroke-width:0.499999;stroke-opacity:1"
         width="203.99374"
         height="102.92291"
         x="3.175"
         y="95.51458"
         id="rect51903" />
    </clipPath>
    <clipPath
       id="clipPath470">
      <rect
         style="fill:none;fill-opacity:1;stroke:#000000;stroke-width:0.499999;stroke-opacity:1"
         width="203.99374"
         height="102.92291"
         x="3.175"
         y="95.51458"
         id="rect52666" />
    </clipPath>
    <clipPath
       id="clipPath4615">
      <rect
         style="fill:none;fill-opacity:1;stroke:#000000;stroke-width:0.499999;stroke-opacity:1"
         width="206.42133"
         height="148.96384"
         x="2.1280549"
         y="95.336861"
         id="rect54164" />
    </clipPath>
    <inkscape:path-effect
       effect="bspline"
       id="path-effect59969-3"
       is_visible="true"
       lpeversion="1"
       weight="33.333333"
       steps="2"
       helper_size="0"
       apply_no_weight="true"
       apply_with_weight="true"
       only_selected="false" />
    <inkscape:path-effect
       effect="bspline"
       id="path-effect69354-2"
       is_visible="true"
       lpeversion="1"
       weight="33.333333"
       steps="2"
       helper_size="0"
       apply_no_weight="true"
       apply_with_weight="true"
       only_selected="false" />
    <clipPath
       id="clipPath4615-9">
      <rect
         style="fill:none;fill-opacity:1;stroke:#000000;stroke-width:0.499999;stroke-opacity:1"
         width="206.42133"
         height="148.96384"
         x="2.1280549"
         y="95.336861"
         id="rect54164-4" />
    </clipPath>
    <inkscape:path-effect
       effect="bspline"
       id="path-effect55329-8"
       is_visible="true"
       lpeversion="1"
       weight="33.333333"
       steps="2"
       helper_size="0"
       apply_no_weight="true"
       apply_with_weight="true"
       only_selected="false" />
    <marker
       style="overflow:visible"
       id="Stop"
       refX="0"
       refY="0"
       orient="auto"
       inkscape:stockid="Stop"
       markerWidth="1"
       markerHeight="8"
       viewBox="0 0 1 8"
       inkscape:isstock="true"
       inkscape:collect="always"
       preserveAspectRatio="xMidYMid">
      <path
         style="fill:none;stroke:context-stroke;stroke-width:1"
         d="M 0,4 V -4"
         id="path171" />
    </marker>
    <marker
       style="overflow:visible"
       id="marker60207"
       refX="0"
       refY="0"
       orient="auto"
       inkscape:stockid="Stop"
       markerWidth="1"
       markerHeight="8"
       viewBox="0 0 1 8"
       inkscape:isstock="true"
       inkscape:collect="always"
       preserveAspectRatio="xMidYMid">
      <path
         style="fill:none;stroke:context-stroke;stroke-width:1"
         d="M 0,4 V -4"
         id="path60205" />
    </marker>
    <inkscape:path-effect
       effect="bspline"
       id="path-effect59969-6"
       is_visible="true"
       lpeversion="1"
       weight="33.333333"
       steps="2"
       helper_size="0"
       apply_no_weight="true"
       apply_with_weight="true"
       only_selected="false" />
    <inkscape:path-effect
       effect="bspline"
       id="path-effect65511-7"
       is_visible="true"
       lpeversion="1"
       weight="33.333333"
       steps="2"
       helper_size="0"
       apply_no_weight="true"
       apply_with_weight="true"
       only_selected="false" />
    <inkscape:path-effect
       effect="bspline"
       id="path-effect67786-9"
       is_visible="true"
       lpeversion="1"
       weight="33.333333"
       steps="2"
       helper_size="0"
       apply_no_weight="true"
       apply_with_weight="true"
       only_selected="false" />
    <inkscape:path-effect
       effect="bspline"
       id="path-effect69106-0"
       is_visible="true"
       lpeversion="1"
       weight="33.333333"
       steps="2"
       helper_size="0"
       apply_no_weight="true"
       apply_with_weight="true"
       only_selected="false" />
    <inkscape:path-effect
       effect="bspline"
       id="path-effect69354-9"
       is_visible="true"
       lpeversion="1"
       weight="33.333333"
       steps="2"
       helper_size="0"
       apply_no_weight="true"
       apply_with_weight="true"
       only_selected="false" />
    <marker
       style="overflow:visible"
       id="marker60207-3"
       refX="0"
       refY="0"
       orient="auto"
       inkscape:stockid="Stop"
       markerWidth="1"
       markerHeight="8"
       viewBox="0 0 1 8"
       inkscape:isstock="true"
       inkscape:collect="always"
       preserveAspectRatio="xMidYMid">
      <path
         style="fill:none;stroke:context-stroke;stroke-width:1"
         d="M 0,4 V -4"
         id="path60205-0" />
    </marker>
    <marker
       style="overflow:visible"
       id="Stop-4"
       refX="0"
       refY="0"
       orient="auto"
       inkscape:stockid="Stop"
       markerWidth="1"
       markerHeight="8"
       viewBox="0 0 1 8"
       inkscape:isstock="true"
       inkscape:collect="always"
       preserveAspectRatio="xMidYMid">
      <path
         style="fill:none;stroke:context-stroke;stroke-width:1"
         d="M 0,4 V -4"
         id="path171-0" />
    </marker>
    <inkscape:path-effect
       effect="bspline"
       id="path-effect69354-2-8"
       is_visible="true"
       lpeversion="1"
       weight="33.333333"
       steps="2"
       helper_size="0"
       apply_no_weight="true"
       apply_with_weight="true"
       only_selected="false" />
  </defs>
  <g
     inkscape:label="Layer 1"
     inkscape:groupmode="layer"
     id="layer1">
    <path
       style="fill:none;stroke:#000000;stroke-width:0.499999;stroke-opacity:1"
       d="M 29.3687 -1.48799e+191 C 29.6169 2.1552e+206 29.8651 -1.46437e+17 30.1133 -2.92874e+16 C 30.3615 8.78623e+16 30.6097 -2.14507e+13 30.8579 -7.15024e+12 C 31.106 7.15025e+12 31.3542 -1.28588e+11 31.6024 -5.51088e+10 C 31.8506 1.837e+10 32.0988 -3.49116e+09 32.347 -1.74555e+09 C 32.5952 57668 32.8433 -2.15888e+08 33.0915 -1.19931e+08 C 33.3397 -2.39741e+07 33.5879 -2.24105e+07 33.8361 -1.34443e+07 C 34.0843 -4.47798e+06 34.3325 -3.31981e+06 34.5806 -2.11184e+06 C 34.8288 -903870 35.077 -636933 35.3252 -424288 C 35.5734 -211644 35.8216 -148601 36.0698 -102710 C 36.3179 -56818.9 36.5661 -40335.4 36.8143 -28714.8 C 37.0625 -17094.1 37.3107 -12309.6 37.5589 -8964.61 C 37.8071 -5619.6 38.0552 -4094.38 38.3034 -3025.78 C 38.5516 -1957.17 38.7998 -1430.06 39.048 -1058.3 C 39.2962 -686.541 39.5444 -491.535 39.7925 -352.886 C 40.0407 -214.237 40.2889 -137.93 40.5371 -83.2561 C 40.7853 -28.5821 41.0335 2.63095 41.2816 25.1298 C 41.5298 47.6287 41.778 60.8107 42.0262 70.34 C 42.2744 79.8693 42.5226 85.5337 42.7708 89.6191 C 43.0189 93.7045 43.2671 96.1318 43.5153 97.8625 C 43.7635 99.5931 44.0117 100.596 44.2599 101.289 C 44.5081 101.982 44.7562 102.353 45.0044 102.588 C 45.2526 102.823 45.5008 102.916 45.749 102.952 C 45.9972 102.988 46.2454 102.965 46.4935 102.92 C 46.7417 102.875 46.9899 102.809 47.2381 102.737 C 47.4863 102.665 47.7345 102.587 47.9827 102.511 C 48.2308 102.435 48.479 102.361 48.7272 102.291 C 48.9754 102.22 49.2236 102.154 49.4718 102.093 C 49.72 102.032 49.9681 101.975 50.2163 101.923 C 50.4645 101.871 50.7127 101.824 50.9609 101.781 C 51.2091 101.738 51.4572 101.698 51.7054 101.663 C 51.9536 101.627 52.2018 101.594 52.45 101.565 C 52.6982 101.536 52.9464 101.509 53.1945 101.485 C 53.4427 101.46 53.6909 101.438 53.9391 101.418 C 54.1873 101.398 54.4355 101.38 54.6837 101.364 C 54.9318 101.347 55.18 101.332 55.4282 101.319 C 55.6764 101.305 55.9246 101.293 56.1728 101.281 C 56.421 101.27 56.6691 101.26 56.9173 101.25 C 57.1655 101.241 57.4137 101.232 57.6619 101.224 C 57.9101 101.216 58.1583 101.209 58.4064 101.202 C 58.6546 101.196 58.9028 101.19 59.151 101.184 C 59.3992 101.179 59.6474 101.174 59.8956 101.169 C 60.1437 101.164 60.3919 101.16 60.6401 101.156 C 60.8883 101.152 61.1365 101.148 61.3847 101.145 C 61.6328 101.141 61.881 101.138 62.1292 101.135 C 62.3774 101.132 62.6256 101.13 62.8738 101.127 C 63.122 101.125 63.3701 101.122 63.6183 101.12 C 63.8665 101.118 64.1147 101.116 64.3629 101.114 C 64.6111 101.112 64.8593 101.111 65.1074 101.109 C 65.3556 101.108 65.6038 101.106 65.852 101.105 C 66.1002 101.103 66.3484 101.102 66.5966 101.101 C 66.8447 101.1 67.0929 101.099 67.3411 101.098 C 67.5893 101.096 67.8375 101.096 68.0857 101.095 C 68.3339 101.094 68.582 101.093 68.8302 101.092 C 69.0784 101.091 69.3266 101.091 69.5748 101.09 C 69.823 101.089 70.0712 101.088 70.3193 101.088 C 70.5675 101.087 70.8157 101.087 71.0639 101.086 C 71.3121 101.086 71.5603 101.085 71.8084 101.085 C 72.0566 101.084 72.3048 101.084 72.553 101.083 C 72.8012 101.083 73.0494 101.082 73.2976 101.082 C 73.5457 101.082 73.7939 101.081 74.0421 101.081 C 74.2903 101.081 74.5385 101.08 74.7867 101.08 C 75.0349 101.08 75.283 101.079 75.5312 101.079 C 75.7794 101.079 76.0276 101.079 76.2758 101.078 C 76.524 101.078 76.7722 101.078 77.0203 101.078 C 77.2685 101.077 77.5167 101.077 77.7649 101.077 C 78.0131 101.077 78.2613 101.077 78.5095 101.077 C 78.7576 101.076 79.0058 101.076 79.254 101.076 C 79.5022 101.076 79.7504 101.076 79.9986 101.076 C 80.2468 101.075 80.4949 101.075 80.7431 101.075 C 80.9913 101.075 81.2395 101.075 81.4877 101.075 C 81.7359 101.075 81.984 101.075 82.2322 101.075 C 82.4804 101.074 82.7286 101.074 82.9768 101.074 C 83.225 101.074 83.4732 101.074 83.7213 101.074 C 83.9695 101.074 84.2177 101.074 84.4659 101.074 C 84.7141 101.074 84.9623 101.074 85.2105 101.073 C 85.4586 101.073 85.7068 101.073 85.955 101.073 C 86.2032 101.073 86.4514 101.073 86.6996 101.073 C 86.9478 101.073 87.1959 101.073 87.4441 101.073 C 87.6923 101.073 87.9405 101.073 88.1887 101.073 C 88.4369 101.073 88.6851 101.073 88.9332 101.073 C 89.1814 101.073 89.4296 101.073 89.6778 101.073 C 89.926 101.072 90.1742 101.072 90.4224 101.072 C 90.6705 101.072 90.9187 101.072 91.1669 101.072 C 91.4151 101.072 91.6633 101.072 91.9115 101.072 C 92.1597 101.072 92.4078 101.072 92.656 101.072 C 92.9042 101.072 93.1524 101.072 93.4006 101.072 C 93.6488 101.072 93.8969 101.072 94.1451 101.072 C 94.3933 101.072 94.6415 101.072 94.8897 101.072 C 95.1379 101.072 95.3861 101.072 95.6342 101.072 C 95.8824 101.072 96.1306 101.072 96.3788 101.072 C 96.627 101.072 96.8752 101.072 97.1234 101.072 C 97.3715 101.072 97.6197 101.072 97.8679 101.072 C 98.1161 101.072 98.3643 101.072 98.6125 101.072 C 98.8607 101.072 99.1088 101.072 99.357 101.072 C 99.6052 101.072 99.8534 101.071 100.102 101.071 C 100.35 101.071 100.598 101.071 100.846 101.071 C 101.094 101.071 101.343 101.071 101.591 101.071 C 101.839 101.071 102.087 101.071 102.335 101.071 C 102.583 101.071 102.832 101.071 103.08 101.071 C 103.328 101.071 103.576 101.071 103.824 101.071 C 104.073 101.071 104.321 101.071 104.569 101.071 C 104.817 101.071 105.065 101.071 105.313 101.071 C 105.562 101.071 105.81 101.071 106.058 101.071 C 106.306 101.071 106.554 101.071 106.803 101.071 C 107.051 101.071 107.299 101.071 107.547 101.071 C 107.795 101.071 108.044 101.071 108.292 101.071 C 108.54 101.071 108.788 101.071 109.036 101.071 C 109.284 101.071 109.533 101.071 109.781 101.071 C 110.029 101.071 110.277 101.071 110.525 101.071 C 110.774 101.071 111.022 101.071 111.27 101.071 C 111.518 101.071 111.766 101.071 112.014 101.071 C 112.263 101.071 112.511 101.071 112.759 101.071 C 113.007 101.071 113.255 101.071 113.504 101.071 C 113.752 101.071 114 101.071 114.248 101.071 C 114.496 101.071 114.745 101.071 114.993 101.071 C 115.241 101.071 115.489 101.071 115.737 101.071 C 115.985 101.071 116.234 101.071 116.482 101.071 C 116.73 101.071 116.978 101.071 117.226 101.071 C 117.475 101.071 117.723 101.071 117.971 101.071 C 118.219 101.071 118.467 101.071 118.715 101.071 C 118.964 101.071 119.212 101.071 119.46 101.071 C 119.708 101.071 119.956 101.071 120.205 101.071 C 120.453 101.071 120.701 101.071 120.949 101.071 C 121.197 101.071 121.446 101.071 121.694 101.071 C 121.942 101.071 122.19 101.071 122.438 101.071 C 122.686 101.071 122.935 101.071 123.183 101.071 C 123.431 101.071 123.679 101.071 123.927 101.071 C 124.176 101.071 124.424 101.071 124.672 101.071 C 124.92 101.071 125.168 101.071 125.416 101.071 C 125.665 101.071 125.913 101.071 126.161 101.071 C 126.409 101.071 126.657 101.071 126.906 101.071 C 127.154 101.071 127.402 101.071 127.65 101.071 C 127.898 101.071 128.147 101.071 128.395 101.071 C 128.643 101.071 128.891 101.071 129.139 101.071 C 129.387 101.071 129.636 101.071 129.884 101.071 C 130.132 101.071 130.38 101.071 130.628 101.071 C 130.877 101.071 131.125 101.071 131.373 101.071 C 131.621 101.071 131.869 101.071 132.117 101.071 C 132.366 101.071 132.614 101.071 132.862 101.071 C 133.11 101.071 133.358 101.071 133.607 101.071 C 133.855 101.071 134.103 101.071 134.351 101.071 C 134.599 101.071 134.848 101.071 135.096 101.071 C 135.344 101.071 135.592 101.071 135.84 101.071 C 136.088 101.071 136.337 101.071 136.585 101.071 C 136.833 101.071 137.081 101.071 137.329 101.071 C 137.578 101.071 137.826 101.071 138.074 101.071 C 138.322 101.071 138.57 101.071 138.819 101.071 C 139.067 101.071 139.315 101.071 139.563 101.071 C 139.811 101.071 140.059 101.071 140.308 101.071 C 140.556 101.071 140.804 101.071 141.052 101.071 C 141.3 101.071 141.549 101.071 141.797 101.071 C 142.045 101.071 142.293 101.071 142.541 101.071 C 142.789 101.071 143.038 101.071 143.286 101.071 C 143.534 101.071 143.782 101.071 144.03 101.071 C 144.279 101.071 144.527 101.071 144.775 101.071 C 145.023 101.071 145.271 101.071 145.52 101.071 C 145.768 101.071 146.016 101.071 146.264 101.071 C 146.512 101.071 146.76 101.071 147.009 101.071 C 147.257 101.071 147.505 101.071 147.753 101.071 C 148.001 101.071 148.25 101.071 148.498 101.071 C 148.746 101.071 148.994 101.071 149.242 101.071 C 149.49 101.071 149.739 101.071 149.987 101.071 C 150.235 101.071 150.483 101.071 150.731 101.071 C 150.98 101.071 151.228 101.071 151.476 101.071 C 151.724 101.071 151.972 101.071 152.221 101.071 C 152.469 101.071 152.717 101.071 152.965 101.071 C 153.213 101.071 153.461 101.071 153.71 101.071 C 153.958 101.071 154.206 101.071 154.454 101.071 C 154.702 101.071 154.951 101.071 155.199 101.071 C 155.447 101.071 155.695 101.071 155.943 101.071 C 156.191 101.071 156.44 101.071 156.688 101.071 C 156.936 101.071 157.184 101.071 157.432 101.071 C 157.681 101.071 157.929 101.071 158.177 101.071 C 158.425 101.071 158.673 101.071 158.922 101.071 C 159.17 101.071 159.418 101.071 159.666 101.071 C 159.914 101.071 160.162 101.071 160.411 101.071 C 160.659 101.071 160.907 101.071 161.155 101.071 C 161.403 101.071 161.652 101.071 161.9 101.071 C 162.148 101.071 162.396 101.071 162.644 101.071 C 162.892 101.071 163.141 101.071 163.389 101.071 C 163.637 101.071 163.885 101.071 164.133 101.071 C 164.382 101.071 164.63 101.071 164.878 101.071 C 165.126 101.071 165.374 101.071 165.623 101.071 C 165.871 101.071 166.119 101.071 166.367 101.071 C 166.615 101.071 166.863 101.071 167.112 101.071 C 167.36 101.071 167.608 101.071 167.856 101.071 C 168.104 101.071 168.353 101.071 168.601 101.071 C 168.849 101.071 169.097 101.071 169.345 101.071 C 169.593 101.071 169.842 101.071 170.09 101.071 C 170.338 101.071 170.586 101.071 170.834 101.071 C 171.083 101.071 171.331 101.071 171.579 101.071 C 171.827 101.071 172.075 101.071 172.324 101.071 C 172.572 101.071 172.82 101.071 173.068 101.071 C 173.316 101.071 173.564 101.071 173.813 101.071 C 174.061 101.071 174.309 101.071 174.557 101.071 C 174.805 101.071 175.054 101.071 175.302 101.071 C 175.55 101.071 175.798 101.071 176.046 101.071 C 176.294 101.071 176.543 101.071 176.791 101.071 C 177.039 101.071 177.287 101.071 177.535 101.071"
       title="(x**-12) - (x**-6)"
       id="path8032" />
    <path
       style="fill:none;stroke:#000000;stroke-width:0.499999;stroke-opacity:1"
       d="M 29.3687 -1.48799e+191 C 29.6169 2.1552e+206 29.8651 -1.46437e+17 30.1133 -2.92874e+16 C 30.3615 8.78623e+16 30.6097 -2.14507e+13 30.8579 -7.15024e+12 C 31.106 7.15025e+12 31.3542 -1.28588e+11 31.6024 -5.51088e+10 C 31.8506 1.837e+10 32.0988 -3.49116e+09 32.347 -1.74555e+09 C 32.5952 57630 32.8433 -2.15888e+08 33.0915 -1.19931e+08 C 33.3397 -2.39741e+07 33.5879 -2.24106e+07 33.8361 -1.34443e+07 C 34.0843 -4.47802e+06 34.3325 -3.31984e+06 34.5806 -2.11188e+06 C 34.8288 -903908 35.077 -636971 35.3252 -424326 C 35.5734 -211682 35.8216 -148639 36.0698 -102748 C 36.3179 -56856.8 36.5661 -40373.4 36.8143 -28752.7 C 37.0625 -17132.1 37.3107 -12347.6 37.5589 -9002.58 C 37.8071 -5657.57 38.0552 -4132.35 38.3034 -3063.74 C 38.5516 -1995.14 38.7998 -1468.03 39.048 -1096.27 C 39.2962 -724.509 39.5444 -529.503 39.7925 -390.854 C 40.0407 -252.204 40.2889 -175.898 40.5371 -121.224 C 40.7853 -66.5498 41.0335 -35.3368 41.2816 -12.8379 C 41.5298 9.66096 41.778 22.843 42.0262 32.3723 C 42.2744 41.9016 42.5226 47.566 42.7708 51.6514 C 43.0189 55.7368 43.2671 58.1641 43.5153 59.8947 C 43.7635 61.6254 44.0117 62.6282 44.2599 63.3214 C 44.5081 64.0146 44.7562 64.3854 45.0044 64.6201 C 45.2526 64.8548 45.5008 64.9481 45.749 64.9842 C 45.9972 65.0203 46.2454 64.9969 46.4935 64.9523 C 46.7417 64.9077 46.9899 64.8409 47.2381 64.7689 C 47.4863 64.6969 47.7345 64.6193 47.9827 64.5434 C 48.2308 64.4675 48.479 64.393 48.7272 64.3228 C 48.9754 64.2526 49.2236 64.1865 49.4718 64.1252 C 49.72 64.064 49.9681 64.0075 50.2163 63.9556 C 50.4645 63.9037 50.7127 63.8564 50.9609 63.8132 C 51.2091 63.7699 51.4572 63.7307 51.7054 63.6949 C 51.9536 63.6591 52.2018 63.6268 52.45 63.5973 C 52.6982 63.5678 52.9464 63.5412 53.1945 63.5169 C 53.4427 63.4926 53.6909 63.4707 53.9391 63.4507 C 54.1873 63.4307 54.4355 63.4126 54.6837 63.3961 C 54.9318 63.3796 55.18 63.3647 55.4282 63.351 C 55.6764 63.3373 55.9246 63.3249 56.1728 63.3136 C 56.421 63.3022 56.6691 63.2919 56.9173 63.2825 C 57.1655 63.273 57.4137 63.2644 57.6619 63.2565 C 57.9101 63.2486 58.1583 63.2414 58.4064 63.2348 C 58.6546 63.2282 58.9028 63.2221 59.151 63.2165 C 59.3992 63.2109 59.6474 63.2058 59.8956 63.2011 C 60.1437 63.1964 60.3919 63.1921 60.6401 63.1881 C 60.8883 63.1841 61.1365 63.1804 61.3847 63.177 C 61.6328 63.1736 61.881 63.1705 62.1292 63.1676 C 62.3774 63.1647 62.6256 63.162 62.8738 63.1595 C 63.122 63.157 63.3701 63.1547 63.6183 63.1526 C 63.8665 63.1504 64.1147 63.1485 64.3629 63.1466 C 64.6111 63.1448 64.8593 63.1431 65.1074 63.1415 C 65.3556 63.1399 65.6038 63.1384 65.852 63.137 C 66.1002 63.1357 66.3484 63.1344 66.5966 63.1332 C 66.8447 63.132 67.0929 63.1309 67.3411 63.1298 C 67.5893 63.1288 67.8375 63.1278 68.0857 63.1269 C 68.3339 63.126 68.582 63.1251 68.8302 63.1243 C 69.0784 63.1235 69.3266 63.1228 69.5748 63.1221 C 69.823 63.1214 70.0712 63.1207 70.3193 63.1201 C 70.5675 63.1195 70.8157 63.1189 71.0639 63.1184 C 71.3121 63.1178 71.5603 63.1173 71.8084 63.1168 C 72.0566 63.1164 72.3048 63.1159 72.553 63.1155 C 72.8012 63.1151 73.0494 63.1147 73.2976 63.1143 C 73.5457 63.1139 73.7939 63.1136 74.0421 63.1132 C 74.2903 63.1129 74.5385 63.1126 74.7867 63.1123 C 75.0349 63.112 75.283 63.1117 75.5312 63.1114 C 75.7794 63.1112 76.0276 63.1109 76.2758 63.1107 C 76.524 63.1104 76.7722 63.1102 77.0203 63.11 C 77.2685 63.1098 77.5167 63.1096 77.7649 63.1094 C 78.0131 63.1092 78.2613 63.109 78.5095 63.1088 C 78.7576 63.1087 79.0058 63.1085 79.254 63.1083 C 79.5022 63.1082 79.7504 63.108 79.9986 63.1079 C 80.2468 63.1078 80.4949 63.1076 80.7431 63.1075 C 80.9913 63.1074 81.2395 63.1072 81.4877 63.1071 C 81.7359 63.107 81.984 63.1069 82.2322 63.1068 C 82.4804 63.1067 82.7286 63.1066 82.9768 63.1065 C 83.225 63.1064 83.4732 63.1063 83.7213 63.1062 C 83.9695 63.1062 84.2177 63.1061 84.4659 63.106 C 84.7141 63.1059 84.9623 63.1058 85.2105 63.1058 C 85.4586 63.1057 85.7068 63.1056 85.955 63.1056 C 86.2032 63.1055 86.4514 63.1054 86.6996 63.1054 C 86.9478 63.1053 87.1959 63.1053 87.4441 63.1052 C 87.6923 63.1052 87.9405 63.1051 88.1887 63.1051 C 88.4369 63.105 88.6851 63.105 88.9332 63.1049 C 89.1814 63.1049 89.4296 63.1048 89.6778 63.1048 C 89.926 63.1048 90.1742 63.1047 90.4224 63.1047 C 90.6705 63.1046 90.9187 63.1046 91.1669 63.1046 C 91.4151 63.1045 91.6633 63.1045 91.9115 63.1045 C 92.1597 63.1044 92.4078 63.1044 92.656 63.1044 C 92.9042 63.1043 93.1524 63.1043 93.4006 63.1043 C 93.6488 63.1043 93.8969 63.1042 94.1451 63.1042 C 94.3933 63.1042 94.6415 63.1042 94.8897 63.1041 C 95.1379 63.1041 95.3861 63.1041 95.6342 63.1041 C 95.8824 63.1041 96.1306 63.104 96.3788 63.104 C 96.627 63.104 96.8752 63.104 97.1234 63.104 C 97.3715 63.1039 97.6197 63.1039 97.8679 63.1039 C 98.1161 63.1039 98.3643 63.1039 98.6125 63.1039 C 98.8607 63.1038 99.1088 63.1038 99.357 63.1038 C 99.6052 63.1038 99.8534 63.1038 100.102 63.1038 C 100.35 63.1038 100.598 63.1037 100.846 63.1037 C 101.094 63.1037 101.343 63.1037 101.591 63.1037 C 101.839 63.1037 102.087 63.1037 102.335 63.1037 C 102.583 63.1036 102.832 63.1036 103.08 63.1036 C 103.328 63.1036 103.576 63.1036 103.824 63.1036 C 104.073 63.1036 104.321 63.1036 104.569 63.1036 C 104.817 63.1036 105.065 63.1036 105.313 63.1035 C 105.562 63.1035 105.81 63.1035 106.058 63.1035 C 106.306 63.1035 106.554 63.1035 106.803 63.1035 C 107.051 63.1035 107.299 63.1035 107.547 63.1035 C 107.795 63.1035 108.044 63.1035 108.292 63.1035 C 108.54 63.1035 108.788 63.1034 109.036 63.1034 C 109.284 63.1034 109.533 63.1034 109.781 63.1034 C 110.029 63.1034 110.277 63.1034 110.525 63.1034 C 110.774 63.1034 111.022 63.1034 111.27 63.1034 C 111.518 63.1034 111.766 63.1034 112.014 63.1034 C 112.263 63.1034 112.511 63.1034 112.759 63.1034 C 113.007 63.1034 113.255 63.1034 113.504 63.1034 C 113.752 63.1033 114 63.1033 114.248 63.1033 C 114.496 63.1033 114.745 63.1033 114.993 63.1033 C 115.241 63.1033 115.489 63.1033 115.737 63.1033 C 115.985 63.1033 116.234 63.1033 116.482 63.1033 C 116.73 63.1033 116.978 63.1033 117.226 63.1033 C 117.475 63.1033 117.723 63.1033 117.971 63.1033 C 118.219 63.1033 118.467 63.1033 118.715 63.1033 C 118.964 63.1033 119.212 63.1033 119.46 63.1033 C 119.708 63.1033 119.956 63.1033 120.205 63.1033 C 120.453 63.1033 120.701 63.1033 120.949 63.1033 C 121.197 63.1033 121.446 63.1033 121.694 63.1033 C 121.942 63.1033 122.19 63.1033 122.438 63.1032 C 122.686 63.1032 122.935 63.1032 123.183 63.1032 C 123.431 63.1032 123.679 63.1032 123.927 63.1032 C 124.176 63.1032 124.424 63.1032 124.672 63.1032 C 124.92 63.1032 125.168 63.1032 125.416 63.1032 C 125.665 63.1032 125.913 63.1032 126.161 63.1032 C 126.409 63.1032 126.657 63.1032 126.906 63.1032 C 127.154 63.1032 127.402 63.1032 127.65 63.1032 C 127.898 63.1032 128.147 63.1032 128.395 63.1032 C 128.643 63.1032 128.891 63.1032 129.139 63.1032 C 129.387 63.1032 129.636 63.1032 129.884 63.1032 C 130.132 63.1032 130.38 63.1032 130.628 63.1032 C 130.877 63.1032 131.125 63.1032 131.373 63.1032 C 131.621 63.1032 131.869 63.1032 132.117 63.1032 C 132.366 63.1032 132.614 63.1032 132.862 63.1032 C 133.11 63.1032 133.358 63.1032 133.607 63.1032 C 133.855 63.1032 134.103 63.1032 134.351 63.1032 C 134.599 63.1032 134.848 63.1032 135.096 63.1032 C 135.344 63.1032 135.592 63.1032 135.84 63.1032 C 136.088 63.1032 136.337 63.1032 136.585 63.1032 C 136.833 63.1032 137.081 63.1032 137.329 63.1032 C 137.578 63.1032 137.826 63.1032 138.074 63.1032 C 138.322 63.1032 138.57 63.1032 138.819 63.1032 C 139.067 63.1032 139.315 63.1032 139.563 63.1032 C 139.811 63.1032 140.059 63.1032 140.308 63.1032 C 140.556 63.1032 140.804 63.1032 141.052 63.1032 C 141.3 63.1032 141.549 63.1032 141.797 63.1032 C 142.045 63.1032 142.293 63.1032 142.541 63.1032 C 142.789 63.1032 143.038 63.1032 143.286 63.1032 C 143.534 63.1032 143.782 63.1032 144.03 63.1032 C 144.279 63.1032 144.527 63.1032 144.775 63.1032 C 145.023 63.1032 145.271 63.1032 145.52 63.1032 C 145.768 63.1032 146.016 63.1032 146.264 63.1032 C 146.512 63.1032 146.76 63.1032 147.009 63.1032 C 147.257 63.1032 147.505 63.1032 147.753 63.1032 C 148.001 63.1032 148.25 63.1032 148.498 63.1032 C 148.746 63.1032 148.994 63.1032 149.242 63.1032 C 149.49 63.1032 149.739 63.1032 149.987 63.1032 C 150.235 63.1032 150.483 63.1031 150.731 63.1031 C 150.98 63.1031 151.228 63.1031 151.476 63.1031 C 151.724 63.1031 151.972 63.1031 152.221 63.1031 C 152.469 63.1031 152.717 63.1031 152.965 63.1031 C 153.213 63.1031 153.461 63.1031 153.71 63.1031 C 153.958 63.1031 154.206 63.1031 154.454 63.1031 C 154.702 63.1031 154.951 63.1031 155.199 63.1031 C 155.447 63.1031 155.695 63.1031 155.943 63.1031 C 156.191 63.1031 156.44 63.1031 156.688 63.1031 C 156.936 63.1031 157.184 63.1031 157.432 63.1031 C 157.681 63.1031 157.929 63.1031 158.177 63.1031 C 158.425 63.1031 158.673 63.1031 158.922 63.1031 C 159.17 63.1031 159.418 63.1031 159.666 63.1031 C 159.914 63.1031 160.162 63.1031 160.411 63.1031 C 160.659 63.1031 160.907 63.1031 161.155 63.1031 C 161.403 63.1031 161.652 63.1031 161.9 63.1031 C 162.148 63.1031 162.396 63.1031 162.644 63.1031 C 162.892 63.1031 163.141 63.1031 163.389 63.1031 C 163.637 63.1031 163.885 63.1031 164.133 63.1031 C 164.382 63.1031 164.63 63.1031 164.878 63.1031 C 165.126 63.1031 165.374 63.1031 165.623 63.1031 C 165.871 63.1031 166.119 63.1031 166.367 63.1031 C 166.615 63.1031 166.863 63.1031 167.112 63.1031 C 167.36 63.1031 167.608 63.1031 167.856 63.1031 C 168.104 63.1031 168.353 63.1031 168.601 63.1031 C 168.849 63.1031 169.097 63.1031 169.345 63.1031 C 169.593 63.1031 169.842 63.1031 170.09 63.1031 C 170.338 63.1031 170.586 63.1031 170.834 63.1031 C 171.083 63.1031 171.331 63.1031 171.579 63.1031 C 171.827 63.1031 172.075 63.1031 172.324 63.1031 C 172.572 63.1031 172.82 63.1031 173.068 63.1031 C 173.316 63.1031 173.564 63.1031 173.813 63.1031 C 174.061 63.1031 174.309 63.1031 174.557 63.1031 C 174.805 63.1031 175.054 63.1031 175.302 63.1031 C 175.55 63.1031 175.798 63.1031 176.046 63.1031 C 176.294 63.1031 176.543 63.1031 176.791 63.1031 C 177.039 63.1031 177.287 63.1031 177.535 63.1031"
       title="(x**-12) - (x**-6)"
       id="path8047" />
    <path
       style="fill:none;stroke:#000000;stroke-width:0.499999;stroke-opacity:1"
       d="M 29.3687 -1.48799e+191 C 29.6169 2.1552e+206 29.8651 -1.46437e+17 30.1133 -2.92874e+16 C 30.3615 8.78623e+16 30.6097 -2.14507e+13 30.8579 -7.15024e+12 C 31.106 7.15025e+12 31.3542 -1.28588e+11 31.6024 -5.51088e+10 C 31.8506 1.837e+10 32.0988 -3.49116e+09 32.347 -1.74555e+09 C 32.5952 57630 32.8433 -2.15888e+08 33.0915 -1.19931e+08 C 33.3397 -2.39741e+07 33.5879 -2.24106e+07 33.8361 -1.34443e+07 C 34.0843 -4.47802e+06 34.3325 -3.31984e+06 34.5806 -2.11188e+06 C 34.8288 -903908 35.077 -636971 35.3252 -424326 C 35.5734 -211682 35.8216 -148639 36.0698 -102748 C 36.3179 -56856.8 36.5661 -40373.4 36.8143 -28752.7 C 37.0625 -17132.1 37.3107 -12347.6 37.5589 -9002.58 C 37.8071 -5657.57 38.0552 -4132.35 38.3034 -3063.74 C 38.5516 -1995.14 38.7998 -1468.03 39.048 -1096.27 C 39.2962 -724.509 39.5444 -529.503 39.7925 -390.854 C 40.0407 -252.204 40.2889 -175.898 40.5371 -121.224 C 40.7853 -66.5498 41.0335 -35.3368 41.2816 -12.8379 C 41.5298 9.66096 41.778 22.843 42.0262 32.3723 C 42.2744 41.9016 42.5226 47.566 42.7708 51.6514 C 43.0189 55.7368 43.2671 58.1641 43.5153 59.8947 C 43.7635 61.6254 44.0117 62.6282 44.2599 63.3214 C 44.5081 64.0146 44.7562 64.3854 45.0044 64.6201 C 45.2526 64.8548 45.5008 64.9481 45.749 64.9842 C 45.9972 65.0203 46.2454 64.9969 46.4935 64.9523 C 46.7417 64.9077 46.9899 64.8409 47.2381 64.7689 C 47.4863 64.6969 47.7345 64.6193 47.9827 64.5434 C 48.2308 64.4675 48.479 64.393 48.7272 64.3228 C 48.9754 64.2526 49.2236 64.1865 49.4718 64.1252 C 49.72 64.064 49.9681 64.0075 50.2163 63.9556 C 50.4645 63.9037 50.7127 63.8564 50.9609 63.8132 C 51.2091 63.7699 51.4572 63.7307 51.7054 63.6949 C 51.9536 63.6591 52.2018 63.6268 52.45 63.5973 C 52.6982 63.5678 52.9464 63.5412 53.1945 63.5169 C 53.4427 63.4926 53.6909 63.4707 53.9391 63.4507 C 54.1873 63.4307 54.4355 63.4126 54.6837 63.3961 C 54.9318 63.3796 55.18 63.3647 55.4282 63.351 C 55.6764 63.3373 55.9246 63.3249 56.1728 63.3136 C 56.421 63.3022 56.6691 63.2919 56.9173 63.2825 C 57.1655 63.273 57.4137 63.2644 57.6619 63.2565 C 57.9101 63.2486 58.1583 63.2414 58.4064 63.2348 C 58.6546 63.2282 58.9028 63.2221 59.151 63.2165 C 59.3992 63.2109 59.6474 63.2058 59.8956 63.2011 C 60.1437 63.1964 60.3919 63.1921 60.6401 63.1881 C 60.8883 63.1841 61.1365 63.1804 61.3847 63.177 C 61.6328 63.1736 61.881 63.1705 62.1292 63.1676 C 62.3774 63.1647 62.6256 63.162 62.8738 63.1595 C 63.122 63.157 63.3701 63.1547 63.6183 63.1526 C 63.8665 63.1504 64.1147 63.1485 64.3629 63.1466 C 64.6111 63.1448 64.8593 63.1431 65.1074 63.1415 C 65.3556 63.1399 65.6038 63.1384 65.852 63.137 C 66.1002 63.1357 66.3484 63.1344 66.5966 63.1332 C 66.8447 63.132 67.0929 63.1309 67.3411 63.1298 C 67.5893 63.1288 67.8375 63.1278 68.0857 63.1269 C 68.3339 63.126 68.582 63.1251 68.8302 63.1243 C 69.0784 63.1235 69.3266 63.1228 69.5748 63.1221 C 69.823 63.1214 70.0712 63.1207 70.3193 63.1201 C 70.5675 63.1195 70.8157 63.1189 71.0639 63.1184 C 71.3121 63.1178 71.5603 63.1173 71.8084 63.1168 C 72.0566 63.1164 72.3048 63.1159 72.553 63.1155 C 72.8012 63.1151 73.0494 63.1147 73.2976 63.1143 C 73.5457 63.1139 73.7939 63.1136 74.0421 63.1132 C 74.2903 63.1129 74.5385 63.1126 74.7867 63.1123 C 75.0349 63.112 75.283 63.1117 75.5312 63.1114 C 75.7794 63.1112 76.0276 63.1109 76.2758 63.1107 C 76.524 63.1104 76.7722 63.1102 77.0203 63.11 C 77.2685 63.1098 77.5167 63.1096 77.7649 63.1094 C 78.0131 63.1092 78.2613 63.109 78.5095 63.1088 C 78.7576 63.1087 79.0058 63.1085 79.254 63.1083 C 79.5022 63.1082 79.7504 63.108 79.9986 63.1079 C 80.2468 63.1078 80.4949 63.1076 80.7431 63.1075 C 80.9913 63.1074 81.2395 63.1072 81.4877 63.1071 C 81.7359 63.107 81.984 63.1069 82.2322 63.1068 C 82.4804 63.1067 82.7286 63.1066 82.9768 63.1065 C 83.225 63.1064 83.4732 63.1063 83.7213 63.1062 C 83.9695 63.1062 84.2177 63.1061 84.4659 63.106 C 84.7141 63.1059 84.9623 63.1058 85.2105 63.1058 C 85.4586 63.1057 85.7068 63.1056 85.955 63.1056 C 86.2032 63.1055 86.4514 63.1054 86.6996 63.1054 C 86.9478 63.1053 87.1959 63.1053 87.4441 63.1052 C 87.6923 63.1052 87.9405 63.1051 88.1887 63.1051 C 88.4369 63.105 88.6851 63.105 88.9332 63.1049 C 89.1814 63.1049 89.4296 63.1048 89.6778 63.1048 C 89.926 63.1048 90.1742 63.1047 90.4224 63.1047 C 90.6705 63.1046 90.9187 63.1046 91.1669 63.1046 C 91.4151 63.1045 91.6633 63.1045 91.9115 63.1045 C 92.1597 63.1044 92.4078 63.1044 92.656 63.1044 C 92.9042 63.1043 93.1524 63.1043 93.4006 63.1043 C 93.6488 63.1043 93.8969 63.1042 94.1451 63.1042 C 94.3933 63.1042 94.6415 63.1042 94.8897 63.1041 C 95.1379 63.1041 95.3861 63.1041 95.6342 63.1041 C 95.8824 63.1041 96.1306 63.104 96.3788 63.104 C 96.627 63.104 96.8752 63.104 97.1234 63.104 C 97.3715 63.1039 97.6197 63.1039 97.8679 63.1039 C 98.1161 63.1039 98.3643 63.1039 98.6125 63.1039 C 98.8607 63.1038 99.1088 63.1038 99.357 63.1038 C 99.6052 63.1038 99.8534 63.1038 100.102 63.1038 C 100.35 63.1038 100.598 63.1037 100.846 63.1037 C 101.094 63.1037 101.343 63.1037 101.591 63.1037 C 101.839 63.1037 102.087 63.1037 102.335 63.1037 C 102.583 63.1036 102.832 63.1036 103.08 63.1036 C 103.328 63.1036 103.576 63.1036 103.824 63.1036 C 104.073 63.1036 104.321 63.1036 104.569 63.1036 C 104.817 63.1036 105.065 63.1036 105.313 63.1035 C 105.562 63.1035 105.81 63.1035 106.058 63.1035 C 106.306 63.1035 106.554 63.1035 106.803 63.1035 C 107.051 63.1035 107.299 63.1035 107.547 63.1035 C 107.795 63.1035 108.044 63.1035 108.292 63.1035 C 108.54 63.1035 108.788 63.1034 109.036 63.1034 C 109.284 63.1034 109.533 63.1034 109.781 63.1034 C 110.029 63.1034 110.277 63.1034 110.525 63.1034 C 110.774 63.1034 111.022 63.1034 111.27 63.1034 C 111.518 63.1034 111.766 63.1034 112.014 63.1034 C 112.263 63.1034 112.511 63.1034 112.759 63.1034 C 113.007 63.1034 113.255 63.1034 113.504 63.1034 C 113.752 63.1033 114 63.1033 114.248 63.1033 C 114.496 63.1033 114.745 63.1033 114.993 63.1033 C 115.241 63.1033 115.489 63.1033 115.737 63.1033 C 115.985 63.1033 116.234 63.1033 116.482 63.1033 C 116.73 63.1033 116.978 63.1033 117.226 63.1033 C 117.475 63.1033 117.723 63.1033 117.971 63.1033 C 118.219 63.1033 118.467 63.1033 118.715 63.1033 C 118.964 63.1033 119.212 63.1033 119.46 63.1033 C 119.708 63.1033 119.956 63.1033 120.205 63.1033 C 120.453 63.1033 120.701 63.1033 120.949 63.1033 C 121.197 63.1033 121.446 63.1033 121.694 63.1033 C 121.942 63.1033 122.19 63.1033 122.438 63.1032 C 122.686 63.1032 122.935 63.1032 123.183 63.1032 C 123.431 63.1032 123.679 63.1032 123.927 63.1032 C 124.176 63.1032 124.424 63.1032 124.672 63.1032 C 124.92 63.1032 125.168 63.1032 125.416 63.1032 C 125.665 63.1032 125.913 63.1032 126.161 63.1032 C 126.409 63.1032 126.657 63.1032 126.906 63.1032 C 127.154 63.1032 127.402 63.1032 127.65 63.1032 C 127.898 63.1032 128.147 63.1032 128.395 63.1032 C 128.643 63.1032 128.891 63.1032 129.139 63.1032 C 129.387 63.1032 129.636 63.1032 129.884 63.1032 C 130.132 63.1032 130.38 63.1032 130.628 63.1032 C 130.877 63.1032 131.125 63.1032 131.373 63.1032 C 131.621 63.1032 131.869 63.1032 132.117 63.1032 C 132.366 63.1032 132.614 63.1032 132.862 63.1032 C 133.11 63.1032 133.358 63.1032 133.607 63.1032 C 133.855 63.1032 134.103 63.1032 134.351 63.1032 C 134.599 63.1032 134.848 63.1032 135.096 63.1032 C 135.344 63.1032 135.592 63.1032 135.84 63.1032 C 136.088 63.1032 136.337 63.1032 136.585 63.1032 C 136.833 63.1032 137.081 63.1032 137.329 63.1032 C 137.578 63.1032 137.826 63.1032 138.074 63.1032 C 138.322 63.1032 138.57 63.1032 138.819 63.1032 C 139.067 63.1032 139.315 63.1032 139.563 63.1032 C 139.811 63.1032 140.059 63.1032 140.308 63.1032 C 140.556 63.1032 140.804 63.1032 141.052 63.1032 C 141.3 63.1032 141.549 63.1032 141.797 63.1032 C 142.045 63.1032 142.293 63.1032 142.541 63.1032 C 142.789 63.1032 143.038 63.1032 143.286 63.1032 C 143.534 63.1032 143.782 63.1032 144.03 63.1032 C 144.279 63.1032 144.527 63.1032 144.775 63.1032 C 145.023 63.1032 145.271 63.1032 145.52 63.1032 C 145.768 63.1032 146.016 63.1032 146.264 63.1032 C 146.512 63.1032 146.76 63.1032 147.009 63.1032 C 147.257 63.1032 147.505 63.1032 147.753 63.1032 C 148.001 63.1032 148.25 63.1032 148.498 63.1032 C 148.746 63.1032 148.994 63.1032 149.242 63.1032 C 149.49 63.1032 149.739 63.1032 149.987 63.1032 C 150.235 63.1032 150.483 63.1031 150.731 63.1031 C 150.98 63.1031 151.228 63.1031 151.476 63.1031 C 151.724 63.1031 151.972 63.1031 152.221 63.1031 C 152.469 63.1031 152.717 63.1031 152.965 63.1031 C 153.213 63.1031 153.461 63.1031 153.71 63.1031 C 153.958 63.1031 154.206 63.1031 154.454 63.1031 C 154.702 63.1031 154.951 63.1031 155.199 63.1031 C 155.447 63.1031 155.695 63.1031 155.943 63.1031 C 156.191 63.1031 156.44 63.1031 156.688 63.1031 C 156.936 63.1031 157.184 63.1031 157.432 63.1031 C 157.681 63.1031 157.929 63.1031 158.177 63.1031 C 158.425 63.1031 158.673 63.1031 158.922 63.1031 C 159.17 63.1031 159.418 63.1031 159.666 63.1031 C 159.914 63.1031 160.162 63.1031 160.411 63.1031 C 160.659 63.1031 160.907 63.1031 161.155 63.1031 C 161.403 63.1031 161.652 63.1031 161.9 63.1031 C 162.148 63.1031 162.396 63.1031 162.644 63.1031 C 162.892 63.1031 163.141 63.1031 163.389 63.1031 C 163.637 63.1031 163.885 63.1031 164.133 63.1031 C 164.382 63.1031 164.63 63.1031 164.878 63.1031 C 165.126 63.1031 165.374 63.1031 165.623 63.1031 C 165.871 63.1031 166.119 63.1031 166.367 63.1031 C 166.615 63.1031 166.863 63.1031 167.112 63.1031 C 167.36 63.1031 167.608 63.1031 167.856 63.1031 C 168.104 63.1031 168.353 63.1031 168.601 63.1031 C 168.849 63.1031 169.097 63.1031 169.345 63.1031 C 169.593 63.1031 169.842 63.1031 170.09 63.1031 C 170.338 63.1031 170.586 63.1031 170.834 63.1031 C 171.083 63.1031 171.331 63.1031 171.579 63.1031 C 171.827 63.1031 172.075 63.1031 172.324 63.1031 C 172.572 63.1031 172.82 63.1031 173.068 63.1031 C 173.316 63.1031 173.564 63.1031 173.813 63.1031 C 174.061 63.1031 174.309 63.1031 174.557 63.1031 C 174.805 63.1031 175.054 63.1031 175.302 63.1031 C 175.55 63.1031 175.798 63.1031 176.046 63.1031 C 176.294 63.1031 176.543 63.1031 176.791 63.1031 C 177.039 63.1031 177.287 63.1031 177.535 63.1031"
       title="(x**-12) - (x**-6)"
       id="path32197" />
    <path
       style="fill:none;stroke:#000000;stroke-width:0.499999;stroke-opacity:1"
       d="M 15.3458 -1.83537e+191 C 15.6552 2.65833e+206 15.9645 -1.80623e+17 16.2739 -3.61246e+16 C 16.5832 1.08374e+17 16.8926 -2.64584e+13 17.2019 -8.81947e+12 C 17.5113 8.81947e+12 17.8206 -1.58606e+11 18.1299 -6.79739e+10 C 18.4393 2.26585e+10 18.7486 -4.30617e+09 19.058 -2.15305e+09 C 19.3673 71069.4 19.6767 -2.66287e+08 19.986 -1.47929e+08 C 20.2954 -2.95708e+07 20.6047 -2.76423e+07 20.914 -1.65829e+07 C 21.2234 -5.52342e+06 21.5327 -4.09487e+06 21.8421 -2.60491e+06 C 22.1514 -1.11494e+06 22.4608 -785685 22.7701 -523399 C 23.0795 -261113 23.3888 -183353 23.6982 -126748 C 24.0075 -70144.4 24.3168 -49812.9 24.6262 -35479.4 C 24.9355 -21145.9 25.2449 -15244.5 25.5542 -11118.6 C 25.8636 -6992.66 26.1729 -5111.38 26.4823 -3793.31 C 26.7916 -2475.24 27.101 -1825.08 27.4103 -1366.53 C 27.7196 -907.979 28.029 -667.45 28.3383 -496.433 C 28.6477 -325.416 28.957 -231.296 29.2664 -163.858 C 29.5757 -96.4203 29.8851 -57.9206 30.1944 -30.1694 C 30.5038 -2.4182 30.8131 13.8412 31.1224 25.5951 C 31.4318 37.349 31.7411 44.3358 32.0505 49.3749 C 32.3598 54.4141 32.6692 57.408 32.9785 59.5426 C 33.2879 61.6772 33.5972 62.9143 33.9066 63.7693 C 34.2159 64.6243 34.5252 65.0816 34.8346 65.3712 C 35.1439 65.6607 35.4533 65.7757 35.7626 65.8202 C 36.072 65.8647 36.3813 65.8359 36.6907 65.7809 C 37 65.7259 37.3094 65.6434 37.6187 65.5546 C 37.928 65.4658 38.2374 65.3701 38.5467 65.2765 C 38.8561 65.1829 39.1654 65.091 39.4748 65.0044 C 39.7841 64.9178 40.0935 64.8363 40.4028 64.7607 C 40.7122 64.6852 41.0215 64.6155 41.3308 64.5515 C 41.6402 64.4875 41.9495 64.4292 42.2589 64.3758 C 42.5682 64.3224 42.8776 64.2741 43.1869 64.2299 C 43.4963 64.1858 43.8056 64.1459 44.1149 64.1095 C 44.4243 64.0732 44.7336 64.0403 45.043 64.0104 C 45.3523 63.9805 45.6617 63.9534 45.971 63.9287 C 46.2804 63.9041 46.5897 63.8818 46.8991 63.8614 C 47.2084 63.841 47.5177 63.8226 47.8271 63.8057 C 48.1364 63.7889 48.4458 63.7736 48.7551 63.7596 C 49.0645 63.7456 49.3738 63.7329 49.6832 63.7212 C 49.9925 63.7096 50.3019 63.699 50.6112 63.6892 C 50.9205 63.6795 51.2299 63.6706 51.5392 63.6624 C 51.8486 63.6542 52.1579 63.6467 52.4673 63.6399 C 52.7766 63.633 53.086 63.6267 53.3953 63.6209 C 53.7047 63.615 54.014 63.6097 54.3233 63.6048 C 54.6327 63.5998 54.942 63.5953 55.2514 63.5911 C 55.5607 63.5869 55.8701 63.5831 56.1794 63.5795 C 56.4888 63.5759 56.7981 63.5726 57.1075 63.5695 C 57.4168 63.5665 57.7261 63.5636 58.0355 63.561 C 58.3448 63.5584 58.6542 63.5559 58.9635 63.5537 C 59.2729 63.5514 59.5822 63.5493 59.8916 63.5473 C 60.2009 63.5454 60.5103 63.5435 60.8196 63.5418 C 61.1289 63.5401 61.4383 63.5386 61.7476 63.5371 C 62.057 63.5356 62.3663 63.5342 62.6757 63.5329 C 62.985 63.5317 63.2944 63.5305 63.6037 63.5293 C 63.9131 63.5282 64.2224 63.5272 64.5317 63.5262 C 64.8411 63.5252 65.1504 63.5243 65.4598 63.5234 C 65.7691 63.5225 66.0785 63.5217 66.3878 63.521 C 66.6972 63.5202 67.0065 63.5195 67.3159 63.5188 C 67.6252 63.5181 67.9345 63.5175 68.2439 63.5169 C 68.5532 63.5163 68.8626 63.5158 69.1719 63.5153 C 69.4813 63.5147 69.7906 63.5142 70.1 63.5138 C 70.4093 63.5133 70.7186 63.5129 71.028 63.5124 C 71.3373 63.512 71.6467 63.5116 71.956 63.5113 C 72.2654 63.5109 72.5747 63.5106 72.8841 63.5102 C 73.1934 63.5099 73.5028 63.5096 73.8121 63.5093 C 74.1214 63.509 74.4308 63.5087 74.7401 63.5085 C 75.0495 63.5082 75.3588 63.5079 75.6682 63.5077 C 75.9775 63.5075 76.2869 63.5072 76.5962 63.507 C 76.9056 63.5068 77.2149 63.5066 77.5242 63.5064 C 77.8336 63.5062 78.1429 63.5061 78.4523 63.5059 C 78.7616 63.5057 79.071 63.5055 79.3803 63.5054 C 79.6897 63.5052 79.999 63.5051 80.3084 63.5049 C 80.6177 63.5048 80.927 63.5047 81.2364 63.5045 C 81.5457 63.5044 81.8551 63.5043 82.1644 63.5042 C 82.4738 63.5041 82.7831 63.5039 83.0925 63.5038 C 83.4018 63.5037 83.7112 63.5036 84.0205 63.5035 C 84.3298 63.5034 84.6392 63.5034 84.9485 63.5033 C 85.2579 63.5032 85.5672 63.5031 85.8766 63.503 C 86.1859 63.5029 86.4953 63.5029 86.8046 63.5028 C 87.114 63.5027 87.4233 63.5026 87.7326 63.5026 C 88.042 63.5025 88.3513 63.5025 88.6607 63.5024 C 88.97 63.5023 89.2794 63.5023 89.5887 63.5022 C 89.8981 63.5022 90.2074 63.5021 90.5168 63.5021 C 90.8261 63.502 91.1354 63.502 91.4448 63.5019 C 91.7541 63.5019 92.0635 63.5018 92.3728 63.5018 C 92.6822 63.5017 92.9915 63.5017 93.3009 63.5017 C 93.6102 63.5016 93.9196 63.5016 94.2289 63.5015 C 94.5382 63.5015 94.8476 63.5015 95.1569 63.5014 C 95.4663 63.5014 95.7756 63.5014 96.085 63.5013 C 96.3943 63.5013 96.7037 63.5013 97.013 63.5013 C 97.3223 63.5012 97.6317 63.5012 97.941 63.5012 C 98.2504 63.5011 98.5597 63.5011 98.8691 63.5011 C 99.1784 63.5011 99.4878 63.501 99.7971 63.501 C 100.106 63.501 100.416 63.501 100.725 63.501 C 101.034 63.5009 101.344 63.5009 101.653 63.5009 C 101.963 63.5009 102.272 63.5009 102.581 63.5008 C 102.891 63.5008 103.2 63.5008 103.509 63.5008 C 103.819 63.5008 104.128 63.5008 104.437 63.5007 C 104.747 63.5007 105.056 63.5007 105.365 63.5007 C 105.675 63.5007 105.984 63.5007 106.293 63.5007 C 106.603 63.5006 106.912 63.5006 107.221 63.5006 C 107.531 63.5006 107.84 63.5006 108.149 63.5006 C 108.459 63.5006 108.768 63.5006 109.077 63.5005 C 109.387 63.5005 109.696 63.5005 110.006 63.5005 C 110.315 63.5005 110.624 63.5005 110.934 63.5005 C 111.243 63.5005 111.552 63.5005 111.862 63.5005 C 112.171 63.5004 112.48 63.5004 112.79 63.5004 C 113.099 63.5004 113.408 63.5004 113.718 63.5004 C 114.027 63.5004 114.336 63.5004 114.646 63.5004 C 114.955 63.5004 115.264 63.5004 115.574 63.5004 C 115.883 63.5004 116.192 63.5004 116.502 63.5003 C 116.811 63.5003 117.12 63.5003 117.43 63.5003 C 117.739 63.5003 118.048 63.5003 118.358 63.5003 C 118.667 63.5003 118.977 63.5003 119.286 63.5003 C 119.595 63.5003 119.905 63.5003 120.214 63.5003 C 120.523 63.5003 120.833 63.5003 121.142 63.5003 C 121.451 63.5003 121.761 63.5003 122.07 63.5002 C 122.379 63.5002 122.689 63.5002 122.998 63.5002 C 123.307 63.5002 123.617 63.5002 123.926 63.5002 C 124.235 63.5002 124.545 63.5002 124.854 63.5002 C 125.163 63.5002 125.473 63.5002 125.782 63.5002 C 126.091 63.5002 126.401 63.5002 126.71 63.5002 C 127.02 63.5002 127.329 63.5002 127.638 63.5002 C 127.948 63.5002 128.257 63.5002 128.566 63.5002 C 128.876 63.5002 129.185 63.5002 129.494 63.5002 C 129.804 63.5002 130.113 63.5002 130.422 63.5002 C 130.732 63.5002 131.041 63.5002 131.35 63.5002 C 131.66 63.5001 131.969 63.5001 132.278 63.5001 C 132.588 63.5001 132.897 63.5001 133.206 63.5001 C 133.516 63.5001 133.825 63.5001 134.134 63.5001 C 134.444 63.5001 134.753 63.5001 135.062 63.5001 C 135.372 63.5001 135.681 63.5001 135.991 63.5001 C 136.3 63.5001 136.609 63.5001 136.919 63.5001 C 137.228 63.5001 137.537 63.5001 137.847 63.5001 C 138.156 63.5001 138.465 63.5001 138.775 63.5001 C 139.084 63.5001 139.393 63.5001 139.703 63.5001 C 140.012 63.5001 140.321 63.5001 140.631 63.5001 C 140.94 63.5001 141.249 63.5001 141.559 63.5001 C 141.868 63.5001 142.177 63.5001 142.487 63.5001 C 142.796 63.5001 143.105 63.5001 143.415 63.5001 C 143.724 63.5001 144.033 63.5001 144.343 63.5001 C 144.652 63.5001 144.962 63.5001 145.271 63.5001 C 145.58 63.5001 145.89 63.5001 146.199 63.5001 C 146.508 63.5001 146.818 63.5001 147.127 63.5001 C 147.436 63.5001 147.746 63.5001 148.055 63.5001 C 148.364 63.5001 148.674 63.5001 148.983 63.5001 C 149.292 63.5001 149.602 63.5001 149.911 63.5001 C 150.22 63.5001 150.53 63.5001 150.839 63.5001 C 151.148 63.5001 151.458 63.5001 151.767 63.5001 C 152.076 63.5001 152.386 63.5001 152.695 63.5001 C 153.005 63.5001 153.314 63.5001 153.623 63.5001 C 153.933 63.5001 154.242 63.5 154.551 63.5 C 154.861 63.5 155.17 63.5 155.479 63.5 C 155.789 63.5 156.098 63.5 156.407 63.5 C 156.717 63.5 157.026 63.5 157.335 63.5 C 157.645 63.5 157.954 63.5 158.263 63.5 C 158.573 63.5 158.882 63.5 159.191 63.5 C 159.501 63.5 159.81 63.5 160.119 63.5 C 160.429 63.5 160.738 63.5 161.047 63.5 C 161.357 63.5 161.666 63.5 161.976 63.5 C 162.285 63.5 162.594 63.5 162.904 63.5 C 163.213 63.5 163.522 63.5 163.832 63.5 C 164.141 63.5 164.45 63.5 164.76 63.5 C 165.069 63.5 165.378 63.5 165.688 63.5 C 165.997 63.5 166.306 63.5 166.616 63.5 C 166.925 63.5 167.234 63.5 167.544 63.5 C 167.853 63.5 168.162 63.5 168.472 63.5 C 168.781 63.5 169.09 63.5 169.4 63.5 C 169.709 63.5 170.019 63.5 170.328 63.5 C 170.637 63.5 170.947 63.5 171.256 63.5 C 171.565 63.5 171.875 63.5 172.184 63.5 C 172.493 63.5 172.803 63.5 173.112 63.5 C 173.421 63.5 173.731 63.5 174.04 63.5 C 174.349 63.5 174.659 63.5 174.968 63.5 C 175.277 63.5 175.587 63.5 175.896 63.5 C 176.205 63.5 176.515 63.5 176.824 63.5 C 177.133 63.5 177.443 63.5 177.752 63.5 C 178.061 63.5 178.371 63.5 178.68 63.5 C 178.99 63.5 179.299 63.5 179.608 63.5 C 179.918 63.5 180.227 63.5 180.536 63.5 C 180.846 63.5 181.155 63.5 181.464 63.5 C 181.774 63.5 182.083 63.5 182.392 63.5 C 182.702 63.5 183.011 63.5 183.32 63.5 C 183.63 63.5 183.939 63.5 184.248 63.5 C 184.558 63.5 184.867 63.5 185.176 63.5 C 185.486 63.5 185.795 63.5 186.104 63.5 C 186.414 63.5 186.723 63.5 187.032 63.5 C 187.342 63.5 187.651 63.5 187.961 63.5 C 188.27 63.5 188.579 63.5 188.889 63.5 C 189.198 63.5 189.507 63.5 189.817 63.5 C 190.126 63.5 190.435 63.5 190.745 63.5 C 191.054 63.5 191.363 63.5 191.673 63.5 C 191.982 63.5 192.291 63.5 192.601 63.5 C 192.91 63.5 193.219 63.5 193.529 63.5 C 193.838 63.5 194.147 63.5 194.457 63.5 C 194.766 63.5 195.075 63.5 195.385 63.5 C 195.694 63.5 196.004 63.5 196.313 63.5 C 196.622 63.5 196.932 63.5 197.241 63.5 C 197.55 63.5 197.86 63.5 198.169 63.5 C 198.478 63.5 198.788 63.5 199.097 63.5 C 199.406 63.5 199.716 63.5 200.025 63.5"
       title="(x**-12) - (x**-6)"
       id="path32944" />
    <path
       style="fill:none;stroke:#000000;stroke-width:0.499999;stroke-opacity:1;fill-opacity:1"
       d="M 15.3458 -9.36624e+12 C 15.6552 9.27212e+12 15.9645 -1.71533e+11 16.2739 -7.36551e+10 C 16.5832 2.42227e+10 16.8926 -4.70737e+09 17.2019 -2.35662e+09 C 17.5113 -5.8619e+06 17.8206 -2.92971e+08 18.1299 -1.62899e+08 C 18.4393 -3.28269e+07 18.7486 -3.05426e+07 19.058 -1.83353e+07 C 19.3673 -6.12789e+06 19.6767 -4.53848e+06 19.986 -2.88867e+06 C 20.2954 -1.23886e+06 20.6047 -872870 20.914 -581747 C 21.2234 -290625 21.5327 -204103 21.8421 -141154 C 22.1514 -78204.5 22.4608 -55553.3 22.7701 -39586.6 C 23.0795 -23619.8 23.3888 -17036.3 23.6982 -12433.2 C 24.0075 -7830.11 24.3168 -5728.44 24.6262 -4255.65 C 24.9355 -2782.86 25.2449 -2055.4 25.5542 -1542.15 C 25.8636 -1028.9 26.1729 -759.272 26.4823 -567.464 C 26.7916 -375.655 27.101 -269.899 27.4103 -194.063 C 27.7196 -118.228 28.029 -74.8305 28.3383 -43.5115 C 28.6477 -12.1926 28.957 6.21774 29.2664 19.5513 C 29.5757 32.8849 29.8851 40.8491 30.1944 46.6106 C 30.5038 52.3722 30.8131 55.8217 31.1224 58.2943 C 31.4318 60.7669 31.7411 62.2196 32.0505 63.2346 C 32.3598 64.2497 32.6692 64.8094 32.9785 65.1744 C 33.2879 65.5393 33.5972 65.7021 33.9066 65.7813 C 34.2159 65.8605 34.5252 65.8528 34.8346 65.8126 C 35.1439 65.7724 35.4533 65.6982 35.7626 65.6145 C 36.072 65.5309 36.3813 65.4371 36.6907 65.3441 C 37 65.251 37.3094 65.1583 37.6187 65.0703 C 37.928 64.9822 38.2374 64.8986 38.5467 64.8209 C 38.8561 64.7431 39.1654 64.671 39.4748 64.6046 C 39.7841 64.5382 40.0935 64.4775 40.4028 64.4218 C 40.7122 64.3662 41.0215 64.3156 41.3308 64.2694 C 41.6402 64.2232 41.9495 64.1814 42.2589 64.1432 C 42.5682 64.1051 42.8776 64.0706 43.1869 64.0391 C 43.4963 64.0076 43.8056 63.9792 44.1149 63.9532 C 44.4243 63.9272 44.7336 63.9037 45.043 63.8822 C 45.3523 63.8607 45.6617 63.8413 45.971 63.8235 C 46.2804 63.8057 46.5897 63.7896 46.8991 63.7748 C 47.2084 63.76 47.5177 63.7466 47.8271 63.7342 C 48.1364 63.7219 48.4458 63.7107 48.7551 63.7004 C 49.0645 63.6901 49.3738 63.6807 49.6832 63.672 C 49.9925 63.6634 50.3019 63.6555 50.6112 63.6482 C 50.9205 63.6409 51.2299 63.6342 51.5392 63.6281 C 51.8486 63.6219 52.1579 63.6163 52.4673 63.611 C 52.7766 63.6058 53.086 63.601 53.3953 63.5966 C 53.7047 63.5921 54.014 63.588 54.3233 63.5843 C 54.6327 63.5805 54.942 63.577 55.2514 63.5737 C 55.5607 63.5705 55.8701 63.5675 56.1794 63.5647 C 56.4888 63.5619 56.7981 63.5593 57.1075 63.5569 C 57.4168 63.5545 57.7261 63.5523 58.0355 63.5502 C 58.3448 63.5481 58.6542 63.5462 58.9635 63.5444 C 59.2729 63.5426 59.5822 63.5409 59.8916 63.5393 C 60.2009 63.5378 60.5103 63.5363 60.8196 63.5349 C 61.1289 63.5336 61.4383 63.5323 61.7476 63.5311 C 62.057 63.5299 62.3663 63.5288 62.6757 63.5278 C 62.985 63.5267 63.2944 63.5257 63.6037 63.5248 C 63.9131 63.5239 64.2224 63.523 64.5317 63.5222 C 64.8411 63.5214 65.1504 63.5207 65.4598 63.52 C 65.7691 63.5193 66.0785 63.5186 66.3878 63.518 C 66.6972 63.5173 67.0065 63.5167 67.3159 63.5162 C 67.6252 63.5156 67.9345 63.5151 68.2439 63.5146 C 68.5532 63.5141 68.8626 63.5136 69.1719 63.5132 C 69.4813 63.5128 69.7906 63.5124 70.1 63.512 C 70.4093 63.5116 70.7186 63.5112 71.028 63.5109 C 71.3373 63.5105 71.6467 63.5102 71.956 63.5099 C 72.2654 63.5095 72.5747 63.5093 72.8841 63.509 C 73.1934 63.5087 73.5028 63.5084 73.8121 63.5082 C 74.1214 63.5079 74.4308 63.5077 74.7401 63.5075 C 75.0495 63.5072 75.3588 63.507 75.6682 63.5068 C 75.9775 63.5066 76.2869 63.5064 76.5962 63.5062 C 76.9056 63.5061 77.2149 63.5059 77.5242 63.5057 C 77.8336 63.5055 78.1429 63.5054 78.4523 63.5052 C 78.7616 63.5051 79.071 63.505 79.3803 63.5048 C 79.6897 63.5047 79.999 63.5045 80.3084 63.5044 C 80.6177 63.5043 80.927 63.5042 81.2364 63.5041 C 81.5457 63.504 81.8551 63.5039 82.1644 63.5038 C 82.4738 63.5037 82.7831 63.5036 83.0925 63.5035 C 83.4018 63.5034 83.7112 63.5033 84.0205 63.5032 C 84.3298 63.5031 84.6392 63.503 84.9485 63.503 C 85.2579 63.5029 85.5672 63.5028 85.8766 63.5027 C 86.1859 63.5027 86.4953 63.5026 86.8046 63.5025 C 87.114 63.5025 87.4233 63.5024 87.7326 63.5024 C 88.042 63.5023 88.3513 63.5022 88.6607 63.5022 C 88.97 63.5021 89.2794 63.5021 89.5887 63.502 C 89.8981 63.502 90.2074 63.5019 90.5168 63.5019 C 90.8261 63.5018 91.1354 63.5018 91.4448 63.5018 C 91.7541 63.5017 92.0635 63.5017 92.3728 63.5016 C 92.6822 63.5016 92.9915 63.5016 93.3009 63.5015 C 93.6102 63.5015 93.9196 63.5015 94.2289 63.5014 C 94.5382 63.5014 94.8476 63.5014 95.1569 63.5013 C 95.4663 63.5013 95.7756 63.5013 96.085 63.5012 C 96.3943 63.5012 96.7037 63.5012 97.013 63.5012 C 97.3223 63.5011 97.6317 63.5011 97.941 63.5011 C 98.2504 63.5011 98.5597 63.501 98.8691 63.501 C 99.1784 63.501 99.4878 63.501 99.7971 63.501 C 100.106 63.5009 100.416 63.5009 100.725 63.5009 C 101.034 63.5009 101.344 63.5009 101.653 63.5008 C 101.963 63.5008 102.272 63.5008 102.581 63.5008 C 102.891 63.5008 103.2 63.5008 103.509 63.5007 C 103.819 63.5007 104.128 63.5007 104.437 63.5007 C 104.747 63.5007 105.056 63.5007 105.365 63.5007 C 105.675 63.5006 105.984 63.5006 106.293 63.5006 C 106.603 63.5006 106.912 63.5006 107.221 63.5006 C 107.531 63.5006 107.84 63.5006 108.149 63.5005 C 108.459 63.5005 108.768 63.5005 109.077 63.5005 C 109.387 63.5005 109.696 63.5005 110.006 63.5005 C 110.315 63.5005 110.624 63.5005 110.934 63.5005 C 111.243 63.5004 111.552 63.5004 111.862 63.5004 C 112.171 63.5004 112.48 63.5004 112.79 63.5004 C 113.099 63.5004 113.408 63.5004 113.718 63.5004 C 114.027 63.5004 114.336 63.5004 114.646 63.5004 C 114.955 63.5004 115.264 63.5004 115.574 63.5003 C 115.883 63.5003 116.192 63.5003 116.502 63.5003 C 116.811 63.5003 117.12 63.5003 117.43 63.5003 C 117.739 63.5003 118.048 63.5003 118.358 63.5003 C 118.667 63.5003 118.977 63.5003 119.286 63.5003 C 119.595 63.5003 119.905 63.5003 120.214 63.5003 C 120.523 63.5003 120.833 63.5003 121.142 63.5003 C 121.451 63.5002 121.761 63.5002 122.07 63.5002 C 122.379 63.5002 122.689 63.5002 122.998 63.5002 C 123.307 63.5002 123.617 63.5002 123.926 63.5002 C 124.235 63.5002 124.545 63.5002 124.854 63.5002 C 125.163 63.5002 125.473 63.5002 125.782 63.5002 C 126.091 63.5002 126.401 63.5002 126.71 63.5002 C 127.02 63.5002 127.329 63.5002 127.638 63.5002 C 127.948 63.5002 128.257 63.5002 128.566 63.5002 C 128.876 63.5002 129.185 63.5002 129.494 63.5002 C 129.804 63.5002 130.113 63.5002 130.422 63.5002 C 130.732 63.5001 131.041 63.5001 131.35 63.5001 C 131.66 63.5001 131.969 63.5001 132.278 63.5001 C 132.588 63.5001 132.897 63.5001 133.206 63.5001 C 133.516 63.5001 133.825 63.5001 134.134 63.5001 C 134.444 63.5001 134.753 63.5001 135.062 63.5001 C 135.372 63.5001 135.681 63.5001 135.991 63.5001 C 136.3 63.5001 136.609 63.5001 136.919 63.5001 C 137.228 63.5001 137.537 63.5001 137.847 63.5001 C 138.156 63.5001 138.465 63.5001 138.775 63.5001 C 139.084 63.5001 139.393 63.5001 139.703 63.5001 C 140.012 63.5001 140.321 63.5001 140.631 63.5001 C 140.94 63.5001 141.249 63.5001 141.559 63.5001 C 141.868 63.5001 142.177 63.5001 142.487 63.5001 C 142.796 63.5001 143.105 63.5001 143.415 63.5001 C 143.724 63.5001 144.033 63.5001 144.343 63.5001 C 144.652 63.5001 144.962 63.5001 145.271 63.5001 C 145.58 63.5001 145.89 63.5001 146.199 63.5001 C 146.508 63.5001 146.818 63.5001 147.127 63.5001 C 147.436 63.5001 147.746 63.5001 148.055 63.5001 C 148.364 63.5001 148.674 63.5001 148.983 63.5001 C 149.292 63.5001 149.602 63.5001 149.911 63.5001 C 150.22 63.5001 150.53 63.5001 150.839 63.5001 C 151.148 63.5001 151.458 63.5001 151.767 63.5001 C 152.076 63.5001 152.386 63.5001 152.695 63.5001 C 153.005 63.5001 153.314 63.5001 153.623 63.5001 C 153.933 63.5 154.242 63.5 154.551 63.5 C 154.861 63.5 155.17 63.5 155.479 63.5 C 155.789 63.5 156.098 63.5 156.407 63.5 C 156.717 63.5 157.026 63.5 157.335 63.5 C 157.645 63.5 157.954 63.5 158.263 63.5 C 158.573 63.5 158.882 63.5 159.191 63.5 C 159.501 63.5 159.81 63.5 160.119 63.5 C 160.429 63.5 160.738 63.5 161.047 63.5 C 161.357 63.5 161.666 63.5 161.976 63.5 C 162.285 63.5 162.594 63.5 162.904 63.5 C 163.213 63.5 163.522 63.5 163.832 63.5 C 164.141 63.5 164.45 63.5 164.76 63.5 C 165.069 63.5 165.378 63.5 165.688 63.5 C 165.997 63.5 166.306 63.5 166.616 63.5 C 166.925 63.5 167.234 63.5 167.544 63.5 C 167.853 63.5 168.162 63.5 168.472 63.5 C 168.781 63.5 169.09 63.5 169.4 63.5 C 169.709 63.5 170.019 63.5 170.328 63.5 C 170.637 63.5 170.947 63.5 171.256 63.5 C 171.565 63.5 171.875 63.5 172.184 63.5 C 172.493 63.5 172.803 63.5 173.112 63.5 C 173.421 63.5 173.731 63.5 174.04 63.5 C 174.349 63.5 174.659 63.5 174.968 63.5 C 175.277 63.5 175.587 63.5 175.896 63.5 C 176.205 63.5 176.515 63.5 176.824 63.5 C 177.133 63.5 177.443 63.5 177.752 63.5 C 178.061 63.5 178.371 63.5 178.68 63.5 C 178.99 63.5 179.299 63.5 179.608 63.5 C 179.918 63.5 180.227 63.5 180.536 63.5 C 180.846 63.5 181.155 63.5 181.464 63.5 C 181.774 63.5 182.083 63.5 182.392 63.5 C 182.702 63.5 183.011 63.5 183.32 63.5 C 183.63 63.5 183.939 63.5 184.248 63.5 C 184.558 63.5 184.867 63.5 185.176 63.5 C 185.486 63.5 185.795 63.5 186.104 63.5 C 186.414 63.5 186.723 63.5 187.032 63.5 C 187.342 63.5 187.651 63.5 187.961 63.5 C 188.27 63.5 188.579 63.5 188.889 63.5 C 189.198 63.5 189.507 63.5 189.817 63.5 C 190.126 63.5 190.435 63.5 190.745 63.5 C 191.054 63.5 191.363 63.5 191.673 63.5 C 191.982 63.5 192.291 63.5 192.601 63.5 C 192.91 63.5 193.219 63.5 193.529 63.5 C 193.838 63.5 194.147 63.5 194.457 63.5 C 194.766 63.5 195.075 63.5 195.385 63.5 C 195.694 63.5 196.004 63.5 196.313 63.5 C 196.622 63.5 196.932 63.5 197.241 63.5 C 197.55 63.5 197.86 63.5 198.169 63.5 C 198.478 63.5 198.788 63.5 199.097 63.5 C 199.406 63.5 199.716 63.5 200.025 63.5"
       title="(x**-12) - (x**-6)"
       id="path33691" />
    <g
       id="g74052"
       transform="matrix(1.2723991,0,0,1.2723991,3.6804646,-68.241642)"
       inkscape:export-filename="LJ_pot.png"
       inkscape:export-xdpi="96"
       inkscape:export-ydpi="96">
      <rect
         style="fill:#ffffff;fill-opacity:1;stroke:none;stroke-width:0.600001;stroke-dasharray:none;stroke-opacity:1"
         id="rect72956"
         width="222.61465"
         height="166.6393"
         x="-13.511294"
         y="83.881493" />
      <g
         id="g72930"
         transform="translate(-0.09247966,-10.657606)">
        <rect
           style="fill:none;fill-opacity:1;stroke:#000000;stroke-width:0.8;stroke-dasharray:none;stroke-opacity:1"
           id="rect53047"
           width="206.42133"
           height="148.96384"
           x="2.1280549"
           y="95.336861" />
        <path
           style="fill:none;fill-opacity:1;stroke:#0033a0;stroke-width:0.8;stroke-dasharray:none;stroke-opacity:1"
           d="m 2.12805,188.439 h 206.421 M 2.12805,-1810.88 c 0.34577,130.14 0.69153,247.83 1.0373,355.3 0.34576,107.47 0.69153,204.72 1.03729,293.58 0.34577,88.86 0.69153,169.327 1.03729,242.884 0.34577,73.558 0.69153,140.204 1.0373,201.153 0.34576,60.949 0.69153,116.198 1.03729,166.74 0.34576,50.542 0.69153,96.374 1.03729,138.31 0.34577,41.937 0.69153,79.975 1.0373,114.785 0.34576,34.809 0.69149,66.388 1.03729,95.287 0.3458,28.898 0.6915,55.115 1.0373,79.104 0.3458,23.9883 0.6915,45.7481 1.0373,65.6538 0.3458,19.9057 0.6915,37.9565 1.0373,54.46269 0.3457,16.50621 0.6915,31.46701 1.0373,45.13991 0.3457,13.6728 0.6915,26.0571 1.0373,37.3664 0.3457,11.3093 0.6915,21.5432 1.0373,30.8792 0.3457,9.336 0.6915,17.774 1.0373,25.462 0.3457,7.688 0.6915,14.626 1.0372,20.936 0.3458,6.31 0.6916,11.994 1.0373,17.153 0.3458,5.159 0.6916,9.793 1.0373,13.99 0.3458,4.196 0.6916,7.954 1.0373,11.346 0.3458,3.391 0.6916,6.416 1.0373,9.136 0.3458,2.719 0.6915,5.132 1.0373,7.289 0.3458,2.158 0.6915,4.06 1.0373,5.749 0.3458,1.689 0.6915,3.165 1.0373,4.463 0.3458,1.298 0.6915,2.419 1.0373,3.392 0.3458,0.973 0.6915,1.799 1.0373,2.502 0.3457,0.704 0.6915,1.285 1.0373,1.764 0.3457,0.48 0.6915,0.858 1.0373,1.153 0.3457,0.295 0.6915,0.507 1.0373,0.65 0.3457,0.143 0.6915,0.217 1.0373,0.236 0.3457,0.018 0.6915,-0.019 1.0372,-0.102 0.3458,-0.083 0.6916,-0.211 1.0373,-0.375 0.3458,-0.165 0.6916,-0.366 1.0373,-0.596 0.3458,-0.23 0.6916,-0.49 1.0373,-0.772 0.3458,-0.282 0.6916,-0.586 1.0373,-0.909 0.3458,-0.322 0.6915,-0.662 1.0373,-1.016 0.3458,-0.353 0.6915,-0.719 1.0373,-1.095 0.3458,-0.376 0.6915,-0.762 1.0373,-1.154 0.3458,-0.392 0.6915,-0.791 1.0373,-1.194 0.3458,-0.402 0.6915,-0.809 1.0373,-1.218 0.3458,-0.409 0.6915,-0.819 1.0373,-1.23 0.3457,-0.411 0.6915,-0.823 1.0373,-1.233 0.3457,-0.41 0.6915,-0.819 1.0373,-1.226 0.3457,-0.407 0.6915,-0.812 1.0373,-1.213 0.3457,-0.402 0.6915,-0.8 1.0373,-1.195 0.3457,-0.394 0.6915,-0.785 1.0372,-1.171 0.3458,-0.386 0.6916,-0.768 1.0373,-1.145 0.3458,-0.377 0.6916,-0.75 1.0373,-1.117 0.3458,-0.367 0.6916,-0.729 1.0373,-1.085 0.3458,-0.357 0.6916,-0.708 1.0373,-1.054 0.3458,-0.345 0.6915,-0.685 1.0373,-1.02 0.3458,-0.335 0.6915,-0.663 1.0373,-0.987 0.3458,-0.323 0.6915,-0.641 1.0373,-0.953 0.3458,-0.312 0.6915,-0.618 1.0373,-0.919 0.3458,-0.301 0.6915,-0.597 1.0373,-0.886 0.3457,-0.29 0.6915,-0.574 1.0373,-0.853 0.3457,-0.279 0.6915,-0.553 1.0373,-0.821 0.3457,-0.268 0.6915,-0.531 1.0373,-0.789 0.3457,-0.258 0.6915,-0.511 1.0373,-0.758 0.3457,-0.248 0.6915,-0.49 1.0372,-0.728 0.3458,-0.238 0.6916,-0.471 1.0373,-0.699 0.3458,-0.228 0.6916,-0.452 1.0373,-0.671 0.3458,-0.219 0.6916,-0.433 1.0373,-0.643 0.3458,-0.21 0.6916,-0.415 1.0373,-0.617 0.3458,-0.201 0.6915,-0.398 1.0373,-0.591 0.3458,-0.193 0.6915,-0.382 1.0373,-0.567 0.3458,-0.185 0.6915,-0.366 1.0373,-0.544 0.3458,-0.177 0.6915,-0.35 1.0373,-0.52 0.3458,-0.17 0.6915,-0.337 1.0373,-0.499 0.3458,-0.163 0.6915,-0.322 1.0373,-0.478 0.3457,-0.156 0.6915,-0.309 1.0373,-0.459 0.3457,-0.149 0.6915,-0.295 1.0373,-0.439 0.3457,-0.143 0.6915,-0.283 1.0373,-0.42 0.3457,-0.137 0.6915,-0.272 1.0373,-0.403 0.3457,-0.131 0.6915,-0.26 1.0372,-0.386 0.3458,-0.126 0.6916,-0.249 1.0373,-0.37 0.3458,-0.121 0.6916,-0.239 1.0373,-0.355 0.3458,-0.115 0.6916,-0.228 1.0373,-0.339 0.3458,-0.111 0.6916,-0.22 1.0373,-0.326 0.3458,-0.106 0.6915,-0.21 1.0373,-0.312 0.3458,-0.102 0.6915,-0.202 1.0373,-0.299 0.3458,-0.098 0.6915,-0.193 1.0373,-0.287 0.3458,-0.094 0.6915,-0.185 1.0373,-0.275 0.3458,-0.09 0.6915,-0.178 1.0373,-0.264 0.3457,-0.086 0.6915,-0.17 1.0373,-0.253 0.3457,-0.082 0.6915,-0.163 1.0373,-0.242 0.3457,-0.08 0.6915,-0.157 1.0373,-0.233 0.3457,-0.076 0.6915,-0.151 1.0373,-0.224 0.3457,-0.072 0.6915,-0.144 1.0372,-0.214 0.3458,-0.07 0.6916,-0.138 1.0373,-0.206 0.3458,-0.067 0.6916,-0.132 1.0373,-0.197 0.3458,-0.064 0.6916,-0.128 1.0373,-0.189 0.3458,-0.062 0.6916,-0.123 1.0373,-0.182 0.3458,-0.06 0.6916,-0.118 1.0373,-0.175 0.3458,-0.057 0.6915,-0.113 1.0373,-0.168 0.3458,-0.055 0.6914,-0.109 1.0374,-0.161 0.346,-0.053 0.691,-0.105 1.037,-0.155 0.346,-0.051 0.692,-0.101 1.037,-0.149 0.346,-0.049 0.692,-0.097 1.038,-0.144 0.346,-0.046 0.691,-0.092 1.037,-0.137 0.346,-0.045 0.692,-0.089 1.037,-0.132 0.346,-0.044 0.692,-0.086 1.038,-0.128 0.345,-0.041 0.691,-0.082 1.037,-0.122 0.346,-0.04 0.691,-0.079 1.037,-0.118 0.346,-0.038 0.692,-0.076 1.038,-0.113 0.345,-0.037 0.691,-0.073 1.037,-0.109 0.346,-0.036 0.691,-0.071 1.037,-0.105 0.346,-0.034 0.692,-0.068 1.037,-0.101 0.346,-0.033 0.692,-0.065 1.038,-0.097 0.345,-0.032 0.691,-0.063 1.037,-0.094 0.346,-0.031 0.692,-0.061 1.037,-0.09 0.346,-0.03 0.692,-0.059 1.038,-0.087 0.345,-0.028 0.691,-0.056 1.037,-0.084 0.346,-0.027 0.691,-0.054 1.037,-0.08 0.346,-0.027 0.692,-0.053 1.037,-0.078 0.346,-0.026 0.692,-0.051 1.038,-0.075 0.346,-0.025 0.691,-0.049 1.037,-0.072 0.346,-0.024 0.692,-0.047 1.037,-0.07 0.346,-0.023 0.692,-0.045 1.038,-0.067 0.345,-0.022 0.691,-0.044 1.037,-0.065 0.346,-0.021 0.691,-0.042 1.037,-0.063 0.346,-0.02 0.692,-0.04 1.038,-0.06 0.345,-0.02 0.691,-0.039 1.037,-0.058 0.346,-0.019 0.691,-0.038 1.037,-0.056 0.346,-0.019 0.692,-0.037 1.037,-0.055 0.346,-0.017 0.692,-0.035 1.038,-0.052 0.345,-0.017 0.691,-0.034 1.037,-0.051 0.346,-0.016 0.692,-0.032 1.037,-0.048 0.346,-0.017 0.692,-0.032 1.038,-0.048 0.345,-0.015 0.691,-0.03 1.037,-0.045 0.346,-0.015 0.691,-0.03 1.037,-0.044 0.346,-0.015 0.692,-0.029 1.037,-0.043 0.346,-0.014 0.692,-0.028 1.038,-0.041 0.346,-0.014 0.691,-0.027 1.037,-0.04 0.346,-0.013 0.692,-0.026 1.037,-0.038 0.346,-0.013 0.692,-0.026 1.038,-0.038 0.345,-0.012 0.691,-0.024 1.037,-0.036 0.346,-0.012 0.691,-0.023 1.037,-0.035 0.346,-0.011 0.692,-0.022 1.038,-0.033 0.345,-0.011 0.691,-0.022 1.037,-0.033 0.346,-0.011 0.691,-0.021 1.037,-0.031 0.346,-0.011 0.692,-0.021 1.037,-0.031 0.346,-0.01 0.692,-0.02 1.038,-0.03 0.345,-0.009 0.691,-0.019 1.037,-0.028 0.346,-0.01 0.691,-0.019 1.037,-0.028 0.346,-0.009 0.692,-0.018 1.038,-0.027 0.345,-0.009 0.691,-0.017 1.037,-0.026 0.346,-0.008 0.691,-0.017 1.037,-0.025 0.346,-0.008 0.692,-0.016 1.037,-0.024 0.346,-0.008 0.692,-0.016 1.038,-0.024 0.345,-0.008 0.691,-0.015 1.037,-0.023 0.346,-0.007 0.692,-0.015 1.037,-0.022 0.346,-0.007 0.692,-0.015 1.038,-0.022 0.345,-0.007 0.691,-0.014 1.037,-0.02 0.346,-0.007 0.691,-0.014 1.037,-0.021 0.346,-0.006 0.692,-0.013 1.037,-0.019 0.346,-0.007 0.692,-0.013 1.038,-0.019 0.346,-0.007 0.691,-0.013 1.037,-0.019 0.346,-0.006 0.692,-0.012 1.037,-0.018 0.346,-0.006 0.692,-0.011 1.038,-0.017 0.345,-0.006 0.691,-0.011 1.037,-0.017 0.346,-0.006 0.691,-0.011 1.037,-0.016 0.346,-0.006 0.692,-0.011 1.038,-0.016 0.345,-0.005 0.691,-0.011 1.037,-0.016 0.346,-0.005 0.691,-0.01 1.037,-0.015 0.346,-0.005 0.692,-0.009 1.037,-0.014 0.346,-0.005 0.692,-0.01 1.038,-0.014 0.345,-0.005 0.691,-0.01 1.037,-0.014 0.346,-0.005 0.692,-0.009 1.037,-0.013 0.346,-0.005 0.692,-0.009 1.038,-0.013 0.345,-0.005 0.691,-0.009 1.037,-0.013 0.346,-0.004 0.691,-0.008 1.037,-0.012 0.346,-0.004 0.692,-0.008 1.037,-0.012 0.346,-0.004 0.692,-0.008 1.038,-0.011 0.346,-0.004 0.691,-0.008 1.037,-0.012 0.346,-0.003 0.692,-0.007 1.037,-0.011 0.346,-0.003 0.692,-0.007 1.038,-0.01 0.345,-0.004 0.691,-0.007 1.037,-0.011 0.346,-0.003 0.691,-0.006 1.037,-0.01 0.346,-0.003 0.692,-0.006 1.038,-0.009 0.345,-0.003 0.691,-0.007 1.037,-0.01 0.346,-0.003 0.691,-0.006 1.037,-0.009 0.346,-0.003 0.692,-0.006 1.037,-0.009 0.346,-0.003 0.692,-0.006 1.038,-0.009 0.345,-0.003 0.691,-0.005 1.037,-0.008 0.346,-0.003 0.692,-0.006 1.037,-0.008 0.346,-0.003 0.692,-0.006 1.038,-0.008 0.345,-0.003 0.691,-0.006 1.037,-0.008 0.346,-0.003 0.691,-0.005 1.037,-0.008 0.346,-0.002 0.692,-0.005 1.037,-0.007 0.346,-0.003 0.692,-0.005 1.038,-0.008 0.346,-0.002 0.691,-0.004 1.037,-0.007 0.346,-0.002 0.692,-0.004 1.037,-0.006 0.346,-0.003 0.692,-0.005 1.038,-0.007 0.345,-0.002 0.691,-0.004 1.037,-0.007 0.346,-0.002 0.691,-0.004 1.037,-0.006 0.346,-0.002 0.692,-0.004 1.038,-0.006 0.345,-0.002 0.691,-0.004 1.037,-0.006 0.346,-0.002 0.691,-0.004 1.037,-0.006 0.346,-0.002 0.692,-0.004 1.037,-0.006"
           title="(x**(-12)) - (x**(-6))"
           clip-path="url(#clipPath4615-9)"
           id="path54177" />
        <path
           style="fill:none;fill-opacity:1;stroke:#000000;stroke-width:0.799999;stroke-dasharray:none;stroke-opacity:1"
           d="m 2.0518097,188.39344 c 68.7048023,0 137.4093403,0 206.1136103,0"
           id="path55327"
           inkscape:path-effect="#path-effect55329-8"
           inkscape:original-d="m 2.0518097,188.39344 c 68.7048023,2.6e-4 137.4093403,2.6e-4 206.1136103,0" />
        <path
           style="fill:#d64309;fill-opacity:1;stroke:#d64309;stroke-width:0.833044;stroke-dasharray:none;stroke-opacity:1;marker-start:url(#Stop);marker-end:url(#marker60207)"
           d="m 2.1763017,188.40918 c 6.2511946,0 12.5021023,0 18.7527223,0"
           id="path59967"
           inkscape:path-effect="#path-effect59969-6"
           inkscape:original-d="m 2.1763017,188.40918 c 6.2511946,2.7e-4 12.5021023,2.7e-4 18.7527223,0" />
        <text
           xml:space="preserve"
           style="font-style:normal;font-variant:normal;font-weight:normal;font-stretch:normal;font-size:9.87778px;font-family:'Times New Roman';-inkscape-font-specification:'Times New Roman, Normal';font-variant-ligatures:normal;font-variant-caps:normal;font-variant-numeric:normal;font-variant-east-asian:normal;fill:#000000;fill-opacity:1;stroke:none;stroke-width:0.799999;stroke-dasharray:none;stroke-opacity:1"
           x="7.8594537"
           y="184.92119"
           id="text62690"><tspan
             sodipodi:role="line"
             id="tspan62688"
             style="font-style:normal;font-variant:normal;font-weight:normal;font-stretch:normal;font-size:9.87778px;font-family:'Times New Roman';-inkscape-font-specification:'Times New Roman, Normal';font-variant-ligatures:normal;font-variant-caps:normal;font-variant-numeric:normal;font-variant-east-asian:normal;fill:#000000;fill-opacity:1;stroke:none;stroke-width:0.8"
             x="7.8594537"
             y="184.92119"></tspan></text>
        <text
           xml:space="preserve"
           style="font-style:normal;font-variant:normal;font-weight:normal;font-stretch:normal;font-size:9.87778px;font-family:'Times New Roman';-inkscape-font-specification:'Times New Roman, Normal';font-variant-ligatures:normal;font-variant-caps:normal;font-variant-numeric:normal;font-variant-east-asian:normal;fill:#000000;fill-opacity:1;stroke:none;stroke-width:0.799999;stroke-dasharray:none;stroke-opacity:1"
           x="34.811157"
           y="213.92018"
           id="text64481"><tspan
             sodipodi:role="line"
             id="tspan64479"
             style="font-style:normal;font-variant:normal;font-weight:normal;font-stretch:normal;font-size:9.87778px;font-family:'Times New Roman';-inkscape-font-specification:'Times New Roman, Normal';font-variant-ligatures:normal;font-variant-caps:normal;font-variant-numeric:normal;font-variant-east-asian:normal;fill:#000000;fill-opacity:1;stroke:none;stroke-width:0.8"
             x="34.811157"
             y="213.92018"></tspan></text>
        <path
           style="fill:#d64309;fill-opacity:1;stroke:#d64309;stroke-width:0.8;stroke-dasharray:none;stroke-opacity:1;marker-start:url(#marker60207);marker-end:url(#Stop)"
           d="m 32.074067,234.91791 c 0,-15.50767 0,-31.01561 0,-46.52381"
           id="path65509"
           inkscape:path-effect="#path-effect65511-7"
           inkscape:original-d="m 32.074067,234.91791 c 2.64e-4,-15.50767 2.64e-4,-31.01561 0,-46.52381" />
        <text
           xml:space="preserve"
           style="font-style:normal;font-variant:normal;font-weight:normal;font-stretch:normal;font-size:9.87777px;font-family:'Times New Roman';-inkscape-font-specification:'Times New Roman, Normal';font-variant-ligatures:normal;font-variant-caps:normal;font-variant-numeric:normal;font-variant-east-asian:normal;fill:#050202;fill-opacity:1;stroke:none;stroke-width:1.6;stroke-dasharray:none;stroke-opacity:1"
           x="5.2598639"
           y="230.72003"
           id="text67776"><tspan
             sodipodi:role="line"
             id="tspan67774"
             style="stroke-width:1.6"
             x="5.2598639"
             y="230.72003">2<tspan
   style="font-size:65%;baseline-shift:super"
   id="tspan67782">1/6</tspan></tspan></text>
        <path
           style="fill:#000000;fill-opacity:1;stroke:#d64309;stroke-width:0.798636;stroke-dasharray:none;stroke-opacity:1;marker-start:url(#marker60207);marker-end:url(#Stop)"
           d="m 32.070601,234.91616 c -9.978754,0 -19.957773,0 -29.9370543,0"
           id="path67784"
           inkscape:path-effect="#path-effect67786-9"
           inkscape:original-d="m 32.070601,234.91616 c -9.978754,2.6e-4 -19.957773,2.6e-4 -29.9370543,0"
           inkscape:label="path67784" />
        <g
           id="g70417"
           transform="translate(-1.0583333,3.7041668)">
          <rect
             style="fill:#000000;fill-opacity:1;stroke:#000000;stroke-width:0.798048;stroke-dasharray:none;stroke-opacity:1"
             id="rect56311"
             width="47.343304"
             height="3.7885475"
             x="121.1946"
             y="121.5433" />
          <circle
             style="fill:#d64309;fill-opacity:1;stroke:#000000;stroke-width:0.931651;stroke-dasharray:none;stroke-opacity:1"
             id="path56287"
             cx="116.56281"
             cy="123.133"
             r="13.974779" />
          <circle
             style="fill:#0033a0;fill-opacity:1;stroke:#000000;stroke-width:0.931651;stroke-dasharray:none;stroke-opacity:1"
             id="path56287-0"
             cx="174.10474"
             cy="123.13344"
             r="13.974779" />
          <text
             xml:space="preserve"
             style="font-style:normal;font-variant:normal;font-weight:normal;font-stretch:normal;font-size:9.87778px;font-family:'Times New Roman';-inkscape-font-specification:'Times New Roman, Normal';font-variant-ligatures:normal;font-variant-caps:normal;font-variant-numeric:normal;font-variant-east-asian:normal;fill:#000000;fill-opacity:1;stroke:none;stroke-width:0.799999;stroke-dasharray:none;stroke-opacity:1"
             x="112.34576"
             y="102.32463"
             id="text62690-5"><tspan
               sodipodi:role="line"
               id="tspan62688-9"
               style="font-style:normal;font-variant:normal;font-weight:normal;font-stretch:normal;font-size:9.87778px;font-family:'Times New Roman';-inkscape-font-specification:'Times New Roman, Normal';font-variant-ligatures:normal;font-variant-caps:normal;font-variant-numeric:normal;font-variant-east-asian:normal;fill:#000000;fill-opacity:1;stroke:none;stroke-width:0.8;stroke-opacity:1"
               x="112.34576"
               y="102.32463"><tspan
   style="font-style:normal;font-variant:normal;font-weight:normal;font-stretch:normal;font-size:9.87778px;font-family:'Times New Roman';-inkscape-font-specification:'Times New Roman, Normal';font-variant-ligatures:normal;font-variant-caps:normal;font-variant-numeric:normal;font-variant-east-asian:normal;baseline-shift:sub;fill:#000000;fill-opacity:1;stroke:none;stroke-opacity:1"
   id="tspan66912">i</tspan></tspan></text>
          <text
             xml:space="preserve"
             style="font-style:normal;font-variant:normal;font-weight:normal;font-stretch:normal;font-size:9.87778px;font-family:'Times New Roman';-inkscape-font-specification:'Times New Roman, Normal';font-variant-ligatures:normal;font-variant-caps:normal;font-variant-numeric:normal;font-variant-east-asian:normal;fill:#000000;fill-opacity:1;stroke:none;stroke-width:0.799999;stroke-dasharray:none;stroke-opacity:1"
             x="170.35091"
             y="102.32977"
             id="text62690-4"><tspan
               sodipodi:role="line"
               id="tspan62688-5"
               style="font-style:normal;font-variant:normal;font-weight:normal;font-stretch:normal;font-size:9.87778px;font-family:'Times New Roman';-inkscape-font-specification:'Times New Roman, Normal';font-variant-ligatures:normal;font-variant-caps:normal;font-variant-numeric:normal;font-variant-east-asian:normal;fill:#000000;fill-opacity:1;stroke:none;stroke-width:0.8;stroke-opacity:1"
               x="170.35091"
               y="102.32977"><tspan
   style="font-style:normal;font-variant:normal;font-weight:normal;font-stretch:normal;font-size:9.87778px;font-family:'Times New Roman';-inkscape-font-specification:'Times New Roman, Normal';font-variant-ligatures:normal;font-variant-caps:normal;font-variant-numeric:normal;font-variant-east-asian:normal;baseline-shift:sub;fill:#000000;fill-opacity:1;stroke:none;stroke-opacity:1"
   id="tspan66914">j</tspan></tspan></text>
          <text
             xml:space="preserve"
             style="font-style:normal;font-variant:normal;font-weight:normal;font-stretch:normal;font-size:9.87778px;font-family:'Times New Roman';-inkscape-font-specification:'Times New Roman, Normal';font-variant-ligatures:normal;font-variant-caps:normal;font-variant-numeric:normal;font-variant-east-asian:normal;fill:#fffefe;fill-opacity:1;stroke:none;stroke-width:2.57595;stroke-dasharray:none;stroke-opacity:1"
             x="114.94336"
             y="126.27039"
             id="text66347"><tspan
               sodipodi:role="line"
               id="tspan66345"
               style="font-style:normal;font-variant:normal;font-weight:normal;font-stretch:normal;font-size:9.87778px;font-family:'Times New Roman';-inkscape-font-specification:'Times New Roman, Normal';font-variant-ligatures:normal;font-variant-caps:normal;font-variant-numeric:normal;font-variant-east-asian:normal;fill:#fffefe;fill-opacity:1;stroke:none;stroke-width:2.57595;stroke-dasharray:none;stroke-opacity:1"
               x="114.94336"
               y="126.27039">i</tspan></text>
          <text
             xml:space="preserve"
             style="font-style:normal;font-variant:normal;font-weight:normal;font-stretch:normal;font-size:9.87778px;font-family:'Times New Roman';-inkscape-font-specification:'Times New Roman, Normal';font-variant-ligatures:normal;font-variant-caps:normal;font-variant-numeric:normal;font-variant-east-asian:normal;fill:#ffffff;fill-opacity:1;stroke:none;stroke-width:2.36116;stroke-dasharray:none;stroke-opacity:1"
             x="173.37695"
             y="125.34976"
             id="text66351"><tspan
               sodipodi:role="line"
               id="tspan66349"
               style="font-style:normal;font-variant:normal;font-weight:normal;font-stretch:normal;font-size:9.87778px;font-family:'Times New Roman';-inkscape-font-specification:'Times New Roman, Normal';font-variant-ligatures:normal;font-variant-caps:normal;font-variant-numeric:normal;font-variant-east-asian:normal;fill:#ffffff;fill-opacity:1;stroke:none;stroke-width:2.36116;stroke-dasharray:none;stroke-opacity:1"
               x="173.37695"
               y="125.34976">j</tspan></text>
          <text
             xml:space="preserve"
             style="font-style:normal;font-variant:normal;font-weight:normal;font-stretch:normal;font-size:9.87778px;font-family:'Times New Roman';-inkscape-font-specification:'Times New Roman, Normal';font-variant-ligatures:normal;font-variant-caps:normal;font-variant-numeric:normal;font-variant-east-asian:normal;fill:#fffefe;fill-opacity:1;stroke:none;stroke-width:1.6;stroke-dasharray:none;stroke-opacity:1"
             x="140.55634"
             y="152.18762"
             id="text66918"><tspan
               sodipodi:role="line"
               id="tspan66916"
               style="font-style:normal;font-variant:normal;font-weight:normal;font-stretch:normal;font-size:9.87778px;font-family:'Times New Roman';-inkscape-font-specification:'Times New Roman, Normal';font-variant-ligatures:normal;font-variant-caps:normal;font-variant-numeric:normal;font-variant-east-asian:normal;fill:#050202;fill-opacity:1;stroke-width:1.6"
               x="140.55634"
               y="152.18762">r<tspan
   style="font-style:normal;font-variant:normal;font-weight:normal;font-stretch:normal;font-size:9.87778px;font-family:'Times New Roman';-inkscape-font-specification:'Times New Roman, Normal';font-variant-ligatures:normal;font-variant-caps:normal;font-variant-numeric:normal;font-variant-east-asian:normal;baseline-shift:sub"
   id="tspan67022">i,j</tspan></tspan></text>
          <path
             style="fill:#000000;fill-opacity:1;stroke:#000000;stroke-width:0.799999;stroke-dasharray:none;stroke-opacity:1;marker-start:url(#marker60207);marker-end:url(#Stop)"
             d="m 116.31919,143.67705 c 19.53504,0 39.06981,0 58.60432,0"
             id="path69104"
             inkscape:path-effect="#path-effect69106-0"
             inkscape:original-d="m 116.31919,143.67705 c 19.53504,2.6e-4 39.06981,2.6e-4 58.60432,0" />
          <path
             style="fill:#000000;fill-opacity:1;stroke:#000000;stroke-width:0.600001;stroke-dasharray:none;stroke-opacity:1;marker-start:url(#marker60207);marker-end:url(#Stop)"
             d="m 102.4172,106.4 c 9.31761,0 18.63496,0 27.95204,0"
             id="path69352"
             inkscape:path-effect="#path-effect69354-9"
             inkscape:original-d="m 102.4172,106.4 c 9.31761,2.6e-4 18.63496,2.6e-4 27.95204,0" />
          <path
             style="fill:#000000;fill-opacity:1;stroke:#030101;stroke-width:0.600001;stroke-dasharray:none;stroke-opacity:1;marker-start:url(#marker60207-3);marker-end:url(#Stop-4)"
             d="m 160.38847,106.4 c 9.31761,0 18.63496,0 27.95204,0"
             id="path69352-4"
             inkscape:path-effect="#path-effect69354-2-8"
             inkscape:original-d="m 160.38847,106.4 c 9.31761,2.6e-4 18.63496,2.6e-4 27.95204,0" />
        </g>
        <text
           xml:space="preserve"
           style="font-style:normal;font-variant:normal;font-weight:normal;font-stretch:normal;font-size:9.87777px;font-family:'Times New Roman';-inkscape-font-specification:'Times New Roman, Normal';font-variant-ligatures:normal;font-variant-caps:normal;font-variant-numeric:normal;font-variant-east-asian:normal;fill:#000000;fill-opacity:1;stroke:none;stroke-width:0.600001;stroke-dasharray:none;stroke-opacity:1"
           x="56.513046"
           y="257.20953"
           id="text72057"><tspan
             sodipodi:role="line"
             id="tspan72055"
             style="stroke:none;stroke-width:0.6"
             x="56.513046"
             y="257.20953">Internuclear Distance, r<tspan
   style="font-size:65%;baseline-shift:sub;fill:#000000;fill-opacity:1;stroke:none"
   id="tspan72883">i,j</tspan></tspan></text>
        <text
           xml:space="preserve"
           style="font-style:normal;font-variant:normal;font-weight:normal;font-stretch:normal;font-size:9.87777px;font-family:'Times New Roman';-inkscape-font-specification:'Times New Roman, Normal';font-variant-ligatures:normal;font-variant-caps:normal;font-variant-numeric:normal;font-variant-east-asian:normal;fill:#000000;fill-opacity:1;stroke:none;stroke-width:0.600001;stroke-dasharray:none;stroke-opacity:1"
           x="-193.02692"
           y="-6.0307541"
           id="text72887"
           transform="rotate(-90)"><tspan
             sodipodi:role="line"
             id="tspan72885"
             style="stroke-width:0.6"
             x="-193.02692"
             y="-6.0307541">Energy, U<tspan
   style="font-size:65%;baseline-shift:sub"
   id="tspan72889">LJ</tspan></tspan></text>
      </g>
    </g>
  </g>
</svg>
